<?xml version="1.0"?>
<svg xmlns="http://www.w3.org/2000/svg" viewBox="0 0 24 24" width="24px" height="24px">
  <path
    d="M 11.595703 3 C 11.315703 3 11.049375 3.1182188 10.859375 3.3242188 L 9.6171875 4.6757812 C 9.4281875 4.8817812 9.1618594 5 8.8808594 5 L 4 5 C 2.9 5 2 5.9 2 7 L 2 19 C 2 20.1 2.9 21 4 21 L 20 21 C 21.1 21 22 20.1 22 19 L 22 7 C 22 5.9 21.1 5 20 5 L 19.4375 5 C 19.1585 5 18.892125 4.8827344 18.703125 4.6777344 L 17.453125 3.3222656 C 17.264125 3.1172656 16.99775 3 16.71875 3 L 11.595703 3 z M 6 8 C 6.552 8 7 8.448 7 9 C 7 9.552 6.552 10 6 10 C 5.448 10 5 9.552 5 9 C 5 8.448 5.448 8 6 8 z M 14 8 C 16.761 8 19 10.239 19 13 C 19 15.761 16.761 18 14 18 C 11.239 18 9 15.761 9 13 C 9 10.239 11.239 8 14 8 z M 14 10 A 3 3 0 0 0 11 13 A 3 3 0 0 0 14 16 A 3 3 0 0 0 17 13 A 3 3 0 0 0 14 10 z" />
</svg>