<?xml version="1.0"?>
<svg xmlns="http://www.w3.org/2000/svg" viewBox="0 0 24 24" width="24px" height="24px">
  <path
    d="M 12 2 C 11.423 2 10.929938 2.4173281 10.835938 2.9863281 L 10.646484 4.1230469 C 10.159736 4.2067166 9.689176 4.3360771 9.2363281 4.5039062 L 8.5019531 3.6113281 C 8.1349531 3.1653281 7.5 3.0508438 7 3.3398438 C 6.5 3.6278438 6.281375 4.2353906 6.484375 4.7753906 L 6.8886719 5.8554688 C 6.5139637 6.1678481 6.1678481 6.5139637 5.8554688 6.8886719 L 4.7753906 6.484375 C 4.2353906 6.281375 3.6278438 6.5 3.3398438 7 C 3.0508438 7.5 3.1653281 8.1349531 3.6113281 8.5019531 L 4.5039062 9.2363281 C 4.3360771 9.689176 4.2067166 10.159736 4.1230469 10.646484 L 2.9863281 10.835938 C 2.4173281 10.929937 2 11.423 2 12 C 2 12.577 2.4173281 13.070062 2.9863281 13.164062 L 4.1230469 13.353516 C 4.2067166 13.840264 4.3360771 14.310824 4.5039062 14.763672 L 3.6113281 15.498047 C 3.1653281 15.865047 3.0508437 16.5 3.3398438 17 C 3.6288438 17.5 4.2353906 17.718625 4.7753906 17.515625 L 5.8554688 17.111328 C 6.1678481 17.486036 6.5139637 17.832152 6.8886719 18.144531 L 6.484375 19.224609 C 6.281375 19.764609 6.5 20.372156 7 20.660156 C 7.5 20.949156 8.1349531 20.833672 8.5019531 20.388672 L 9.2363281 19.496094 C 9.689176 19.663923 10.159736 19.793283 10.646484 19.876953 L 10.835938 21.013672 C 10.929937 21.582672 11.423 22 12 22 C 12.577 22 13.070062 21.582672 13.164062 21.013672 L 13.353516 19.876953 C 13.840264 19.793283 14.310824 19.663923 14.763672 19.496094 L 15.498047 20.388672 C 15.865047 20.834672 16.5 20.949156 17 20.660156 C 17.5 20.371156 17.718625 19.764609 17.515625 19.224609 L 17.111328 18.144531 C 17.486036 17.832152 17.832152 17.486036 18.144531 17.111328 L 19.224609 17.515625 C 19.764609 17.717625 20.372156 17.5 20.660156 17 C 20.949156 16.5 20.833672 15.865047 20.388672 15.498047 L 19.496094 14.763672 C 19.663923 14.310824 19.793283 13.840264 19.876953 13.353516 L 21.013672 13.164062 C 21.582672 13.070063 22 12.577 22 12 C 22 11.423 21.582672 10.929938 21.013672 10.835938 L 19.876953 10.646484 C 19.793283 10.159736 19.663923 9.689176 19.496094 9.2363281 L 20.388672 8.5019531 C 20.834672 8.1349531 20.949156 7.5 20.660156 7 C 20.371156 6.5 19.764609 6.281375 19.224609 6.484375 L 18.144531 6.8886719 C 17.832152 6.5139637 17.486036 6.1678481 17.111328 5.8554688 L 17.515625 4.7753906 C 17.718625 4.2353906 17.5 3.6278438 17 3.3398438 C 16.5 3.0508437 15.865047 3.1663281 15.498047 3.6113281 L 14.763672 4.5039062 C 14.310824 4.3360771 13.840264 4.2067166 13.353516 4.1230469 L 13.164062 2.9863281 C 13.070063 2.4173281 12.577 2 12 2 z M 11 6.0898438 L 11 9.1738281 A 3 3 0 0 0 9 12 A 3 3 0 0 0 9.0507812 12.548828 L 6.3789062 14.089844 C 6.1382306 13.438833 6 12.736987 6 12 C 6 9.0161425 8.1553612 6.5637988 11 6.0898438 z M 13 6.0898438 C 15.844639 6.5637988 18 9.0161425 18 12 C 18 12.736987 17.861769 13.438833 17.621094 14.089844 L 14.947266 12.546875 A 3 3 0 0 0 15 12 A 3 3 0 0 0 13 9.1757812 L 13 6.0898438 z M 13.947266 14.277344 L 16.628906 15.826172 C 15.530388 17.156023 13.868625 18 12 18 C 10.131375 18 8.4696124 17.156023 7.3710938 15.826172 L 10.050781 14.279297 A 3 3 0 0 0 12 15 A 3 3 0 0 0 13.947266 14.277344 z" />
</svg>