<?xml version="1.0"?>
<svg xmlns="http://www.w3.org/2000/svg" viewBox="0 0 24 24" width="24px" height="24px" fill="#3AC98D">
  <path
    d="M22.171,11.281l-0.884-0.914c-0.643-0.665-0.944-1.59-0.814-2.506l0.178-1.259c0.078-0.552-0.296-1.066-0.845-1.163 l-1.252-0.22c-0.911-0.16-1.698-0.731-2.132-1.549l-0.596-1.123C15.565,2.057,14.96,1.86,14.46,2.105l-1.142,0.558 c-0.831,0.406-1.804,0.406-2.635,0L9.54,2.105C9.04,1.86,8.435,2.057,8.174,2.549L7.578,3.672C7.144,4.49,6.358,5.061,5.446,5.221 l-1.252,0.22C3.645,5.537,3.271,6.051,3.349,6.603l0.178,1.259c0.13,0.916-0.171,1.841-0.814,2.506l-0.884,0.914 c-0.388,0.401-0.388,1.036,0,1.437l0.884,0.914c0.643,0.665,0.944,1.59,0.814,2.506l-0.178,1.259 c-0.078,0.552,0.296,1.066,0.845,1.163l1.252,0.22c0.911,0.16,1.698,0.731,2.132,1.549l0.596,1.123 c0.261,0.492,0.866,0.689,1.367,0.444l1.142-0.558c0.831-0.406,1.804-0.406,2.635,0l1.142,0.558 c0.501,0.245,1.105,0.048,1.367-0.444l0.596-1.123c0.434-0.817,1.22-1.389,2.132-1.549l1.252-0.22 c0.549-0.096,0.923-0.611,0.845-1.163l-0.178-1.259c-0.13-0.916,0.171-1.841,0.814-2.506l0.884-0.914 C22.558,12.318,22.558,11.682,22.171,11.281z M10.293,15.707L8,13.414C7.61,13.024,7.61,12.39,8,12l0,0 c0.39-0.39,1.024-0.39,1.414,0L11,13.586L15.586,9C15.976,8.61,16.61,8.61,17,9v0c0.39,0.39,0.39,1.024,0,1.414l-5.293,5.293 C11.317,16.097,10.683,16.097,10.293,15.707z" />
</svg>