<svg xmlns="http://www.w3.org/2000/svg"  viewBox="0 0 48 48" width="48px" height="48px"><path d="M 11.5 6 C 8.4802259 6 6 8.4802259 6 11.5 L 6 36.5 C 6 39.519774 8.4802259 42 11.5 42 L 36.5 42 C 39.519774 42 42 39.519774 42 36.5 L 42 11.5 C 42 8.4802259 39.519774 6 36.5 6 L 11.5 6 z M 11.5 9 L 36.5 9 C 37.898226 9 39 10.101774 39 11.5 L 39 36.5 C 39 37.898226 37.898226 39 36.5 39 L 11.5 39 C 10.101774 39 9 37.898226 9 36.5 L 9 11.5 C 9 10.101774 10.101774 9 11.5 9 z M 17.5 18 A 2.5 2.5 0 0 0 17.5 23 A 2.5 2.5 0 0 0 17.5 18 z M 30.5 18 A 2.5 2.5 0 0 0 30.5 23 A 2.5 2.5 0 0 0 30.5 18 z M 24 26 C 18.4 26 15.347656 29.539062 15.347656 29.539062 A 1.5004328 1.5004328 0 1 0 17.652344 31.460938 C 17.652344 31.460937 19.6 29 24 29 C 28.4 29 30.347656 31.460938 30.347656 31.460938 A 1.5004328 1.5004328 0 1 0 32.652344 29.539062 C 32.652344 29.539063 29.6 26 24 26 z"/></svg>