<svg xmlns="http://www.w3.org/2000/svg"  viewBox="0 0 16 16" width="16px" height="16px"><path d="M 5.5 1 C 4.1250151 1 3 2.1250151 3 3.5 C 3 3.6387857 3.0105108 3.7752632 3.0332031 3.9101562 L 4.0195312 3.7441406 C 4.0062236 3.6650338 4 3.5852143 4 3.5 C 4 2.6649849 4.6649849 2 5.5 2 C 6.3350151 2 7 2.6649849 7 3.5 C 7 4.3350151 6.3350151 5 5.5 5 L 1 5 L 1 6 L 5.5 6 C 6.8749849 6 8 4.8749849 8 3.5 C 8 2.1250151 6.8749849 1 5.5 1 z M 12 2 C 10.348906 2 9 3.3489059 9 5 C 9 5.3186316 9.0499713 5.6265948 9.140625 5.9140625 L 10.095703 5.6132812 C 10.034357 5.4187489 10 5.2133684 10 5 C 10 3.8890941 10.889094 3 12 3 C 13.110906 3 14 3.8890941 14 5 C 14 6.1109059 13.110906 7 12 7 L 1 7 L 1 8 L 12 8 C 13.651094 8 15 6.6510941 15 5 C 15 3.3489059 13.651094 2 12 2 z M 1 9 L 1 10 L 8.5 10 C 9.3350151 10 10 10.664985 10 11.5 C 10 12.335015 9.3350151 13 8.5 13 C 7.6649849 13 7 12.335015 7 11.5 C 7 11.40681 7.0077505 11.317107 7.0234375 11.230469 L 6.0390625 11.052734 C 6.0127471 11.198096 6 11.34719 6 11.5 C 6 12.874985 7.1250151 14 8.5 14 C 9.8749849 14 11 12.874985 11 11.5 C 11 10.125015 9.8749849 9 8.5 9 L 1 9 z"/></svg>