<?xml version="1.0"?>
<svg xmlns="http://www.w3.org/2000/svg" viewBox="0 0 24 24" width="24px" height="24px">
  <path
    d="M19,3H5C3.895,3,3,3.895,3,5v14c0,1.105,0.895,2,2,2h14c1.105,0,2-0.895,2-2V5C21,3.895,20.105,3,19,3z M19.707,12.707 l-3.3,3.3C16.212,16.202,15.956,16.3,15.7,16.3s-0.512-0.098-0.707-0.293c-0.391-0.391-0.391-1.023,0-1.414L16.586,13H9 c-0.553,0-1-0.447-1-1s0.447-1,1-1h7.586l-1.593-1.593c-0.391-0.391-0.391-1.023,0-1.414s1.023-0.391,1.414,0l3.3,3.3 C20.098,11.684,20.098,12.316,19.707,12.707z" />
</svg>