<?xml version="1.0" encoding="utf-8"?>
<!-- Generator: Adobe Illustrator 27.0.0, SVG Export Plug-In . SVG Version: 6.00 Build 0)  -->
<svg version="1.1" id="Layer_1" xmlns="http://www.w3.org/2000/svg" xmlns:xlink="http://www.w3.org/1999/xlink" x="0px" y="0px"
	 viewBox="0 0 450.8 146.2" style="enable-background:new 0 0 450.8 146.2;" xml:space="preserve">
<style type="text/css">
	.st0{fill:#25B255;}
</style>
<g>
	<path class="st0" d="M68.6,115.1L36.8,27.4h-0.5l-12.5,74.2l9.6,0.9l-2,11.6H0l2-11.6l8.7-0.9l14.1-81.2l-8.5-1.1l2.1-11.7h37.1
		l24.8,71.6h0.6l10.2-58.9l-8.8-1.1l2-11.7h30.4l-2,11.7l-8.7,1.1l-16.4,94.7H68.6z"/>
	<path class="st0" d="M198,103.4c-4.1,6.4-11.6,11.9-19.9,11.9c-10.5,0-15.4-5.5-15.4-13.5c0-2,0.3-4.3,0.9-6.5l-0.8-0.2
		c-3.7,10.6-13.2,20.7-27.1,20.7c-15.5,0-23.6-10.2-23.6-27.7c0-24.2,13.8-51.9,38.8-51.9c10.2,0,15.5,5.3,17.8,11.9l2.6-9.9
		c6.1,0,16.6-0.2,21.9-1.1c-4.4,19.5-8.4,37.3-11.4,56.7c-0.6,4.1-0.8,8.8,4.3,8.8c2.6,0,4.7-2,6.8-4.3L198,103.4z M164.9,59.9
		c0-8.7-2.7-13.5-9.6-13.5c-13.5,0-19.8,25.6-19.8,42.9c0,9.4,1.8,14.6,8.5,14.6C157.4,103.9,164.9,74.7,164.9,59.9z"/>
	<path class="st0" d="M288.2,103.7c-4.3,6.7-11.9,11.7-20.4,11.7c-10.2,0-14.9-5.2-14.9-13.4c0-2.1,0.3-4.4,0.9-6.8l-0.8-0.2
		c-3.8,11.1-13.5,20.7-26.9,20.7c-16,0-23.9-10.2-23.9-27.7c0-24.6,13.8-51.9,38.9-51.9c10.5,0,15.5,5.3,17.5,11.4l6.4-35.3
		L253.7,11l1.7-9.9l33-1.1l0.6,1.2l-16.9,92.3c-1.1,6.1-0.5,9.3,4,9.3c3,0,4.9-1.8,7-4.4L288.2,103.7z M254.7,59.5
		c0-7.8-2.1-13.1-9.3-13.1c-13.5,0-19.9,24.8-19.9,42.9c0,9.3,1.7,14.6,8.2,14.6C247.6,103.9,254.7,74.4,254.7,59.5z"/>
	<path class="st0" d="M300.8,82.7l4.9-32.7l-11.3-1.7l1.7-9.9l31.2-1.2l0.8,1.7l-6.7,29l0.9,0.5c6.5-16,15.5-32.2,31-32.2
		c7.6,0,14.8,3.7,14.8,14c0,9.7-6.2,14-14.8,14c-2,0-3.8-0.3-5.9-0.8l-0.6-10.2c-10,0.2-18.4,14.1-23.7,31.9
		c-2.7,8.8-3.8,16.3-5.2,28.1c-6.1,0-18.1,0.9-24.3,2L300.8,82.7z"/>
	<path class="st0" d="M374.3,132.9c-1.5,3.8,0,5.5,4.9,5.5c9.1,0,17-8.7,26-21.6c-4.9-19.5-9.7-38.6-14.9-56.3
		c-1.8-6.4-2.9-8.7-5.6-8.7c-3.2,0-4.4,3.3-7.1,9.3l-7.8-3.5c4.3-11.4,9.7-20.4,23-20.4c8.8,0,14.1,4.6,17,14.9
		c4.6,15.8,7.8,28.4,11.6,43.5c8.1-13.1,16.4-28.3,16.4-35.3c0-3-1.2-5.5-4.1-5.8l-4.4,5.6c-4.7-1.7-7.5-6.2-7.5-11.4
		c0-7.6,5.8-12.6,14.1-12.6c10.2,0,14.9,7.1,14.9,16.9c0,13.8-14,36-23.6,50.9c-17.2,26.5-28,42.1-49.6,42.1
		c-12.5,0-19.6-5.9-19.6-15.4c0-8.5,6.4-13.2,13.2-13.2c5.6,0,10.8,2.9,10.8,9.9c0,1.4-0.2,2.7-0.6,4.4L374.3,132.9z"/>
</g>
</svg>
