<?xml version="1.0"?>
<svg xmlns="http://www.w3.org/2000/svg" viewBox="0 0 24 24" width="24px" height="24px">
  <path
    d="M 4.5136719 2 C 3.9936719 2 3.6556719 2.5486719 3.8886719 3.0136719 L 7.2871094 9.8105469 C 5.8891094 11.078547 5.009 12.907797 5 14.966797 C 4.983 18.740797 8.1244375 21.947047 11.898438 21.998047 C 15.845437 22.052047 19 18.934 19 15 C 19 12.927 18.118891 11.085547 16.712891 9.8105469 L 20.111328 3.0136719 C 20.343328 2.5486719 20.006328 2 19.486328 2 L 15.617188 2 C 15.238188 2 14.893609 2.2137344 14.724609 2.5527344 L 12 8 L 9.2753906 2.5527344 C 9.1063906 2.2137344 8.7618125 2 8.3828125 2 L 4.5136719 2 z M 12 10 C 14.8 10 17 12.2 17 15 C 17 17.8 14.8 20 12 20 C 9.2 20 7 17.8 7 15 C 7 12.2 9.2 10 12 10 z M 12 12 C 11.9 12.3 11.4 13.199219 10.5 13.199219 L 10.5 14.199219 L 11.599609 14.199219 L 11.599609 18 L 12.900391 18 L 13 18 L 13 12 L 12 12 z" />
</svg>