<svg height="1000" viewBox="0 0 1000 1000" width="1000" xmlns="http://www.w3.org/2000/svg"><path d="m222.9528 474.9407s26.47 229.9506 48.9145 374.8024a4.035 4.035 0 0 0 .8906 1.97l4.9547 5.9416a4.0544 4.0544 0 0 1 -3.1138 6.651h-59.2862a4.05 4.05 0 0 1 -3.9694-3.2285c-6.17-29.8036-23.2106-224.8408-31.4038-291.4628-6.3381-51.5376-3.2026-100.2621 8.1932-123.0538" fill="#f35369"/><path d="m221.3822 474.9407q1.93 16.7607 3.931 33.513 5.0159 42.2941 10.2463 84.5627 6.9093 55.8507 14.242 111.6481c5.022 38.0563 10.2155 76.0918 15.8092 114.0687q1.967 13.3545 4.0124 26.6972c.3 1.955.31 4.3623 1.199 6.1509a14.714 14.714 0 0 0 2.0318 2.6889c1.3346 1.6005 5.1878 4.7038 3.9563 7.1146-1.1721 2.2946-6.7352 1.35-8.7558 1.35h-50.6533a19.6883 19.6883 0 0 1 -2.0885 0c-2.5784-.2807-2.6532-2.9779-3.0074-5.0136-.5828-3.3487-1.0637-6.7154-1.5252-10.0826-3.3707-24.5912-5.7859-49.3263-8.3228-74.0136-3.3979-33.0652-6.6307-66.1473-9.9153-99.2239-2.9025-29.2286-5.7766-58.4636-9.0364-87.655-1.9411-17.3823-4.17-34.7022-4.89-52.1973-.8987-21.849-.4647-44.2222 3.9956-65.7047a89.0606 89.0606 0 0 1 6.8774-21.4911c.8941-1.8057-1.8143-3.399-2.7123-1.5854a92.97 92.97 0 0 0 -7.3062 22.7864 217.3313 217.3313 0 0 0 -3.7417 30.1143c-1.4777 24.1508-.1 48.3947 2.8163 72.3866 3.2494 26.7313 5.8731 53.542 8.5605 80.3341 3.3959 33.8545 6.6941 67.7187 10.1082 101.5714 2.8065 27.8269 5.576 55.6691 8.9785 83.431.9647 7.871 1.8823 15.7844 3.339 23.5836.5138 2.7511 1.7316 5.2434 4.7961 5.8052a16.3519 16.3519 0 0 0 2.91.0956h51.0887c2.6015 0 6.6119.6483 9.0062-.6974 3.3586-1.8879 3.5818-6.0279 1.3327-8.8247-1.5348-1.9086-3.4374-3.6812-4.7777-5.7294-1.02-1.5588-.9562-4.2148-1.2349-6.0289q-.5324-3.466-1.0586-6.9331-1.0352-6.82-2.0483-13.6428-2.0609-13.8695-4.0464-27.75-4.164-29.0614-8.0872-58.157-7.8651-58.0965-15.119-116.2737-5.9939-47.7391-11.7085-95.5128-2.9415-24.57-5.8022-49.15-.13-1.1178-.2585-2.2356c-.2285-1.9849-3.3723-2.008-3.1412 0z" fill="#f35369"/><path d="m211.7079 673.972q3.6956 47.9158 9.4391 95.6436 1.6293 13.5269 3.4237 27.0332a1.6251 1.6251 0 0 0 1.5705 1.5706 1.5781 1.5781 0 0 0 1.5706-1.5706q-6.3235-47.64-10.6047-95.5214-1.2118-13.5706-2.2581-27.1554c-.1544-2.0025-3.2969-2.0192-3.1411 0z" fill="#ec7ebd"/><path d="m251.8559 708.3249c-9.3841-70.9269-17.8879-140.5476-23.204-185.0235a164.4436 164.4436 0 0 0 -20.0255-15.1414l-31.9112 9.4547a420.3661 420.3661 0 0 0 3.224 52c4.6663 37.941 12.2017 117.5291 18.9646 184.5291 3.2465-1.7659 6.3964-3.73 9.4644-5.7778a191.8216 191.8216 0 0 0 43.4877-40.0411z" fill="#182547"/><path d="m253.4265 708.3249q-4.3427-32.8281-8.5068-65.6793-3.8391-30.2328-7.5578-60.4806-3.118-25.3407-6.16-50.6906-.33-2.7529-.66-5.5061c-.1-.8371-.1957-1.675-.3-2.5115-.1733-1.3841-1.4095-2.0882-2.41-2.9448q-5.8959-5.0464-12.238-9.5443-1.5191-1.0761-3.0625-2.1176c-1.021-.6887-2.29-1.8848-3.4863-2.2051a2.3659 2.3659 0 0 0 -1.3467.1516l-4.2083 1.2468-26.5388 7.863-.6525.1933a1.607 1.607 0 0 0 -1.1531 1.5145 434.8 434.8 0 0 0 3.4 53.4418c1.3892 11.4277 2.6279 22.8738 3.8412 34.3214q2.3286 21.9707 4.5132 43.9561 2.4663 24.5556 4.8846 49.1158 2.4549 24.7956 4.9344 49.5887.3069 3.0525.6149 6.1049a1.5923 1.5923 0 0 0 2.3633 1.3561 160.5031 160.5031 0 0 0 23.1527-15.8224 192.1679 192.1679 0 0 0 19.9915-18.5206q5.2962-5.6544 10.1251-11.7206c1.2483-1.5648-.96-3.8017-2.2212-2.2211a191.4026 191.4026 0 0 1 -39.2115 37.079 140.0677 140.0677 0 0 1 -13.4227 8.4934l2.3633 1.3562q-2.5016-24.7862-4.9438-49.5781-2.448-24.72-4.9094-49.4383-2.2435-22.4161-4.5744-44.8235c-1.2512-11.9177-2.528-23.8336-3.939-35.7336a489.109 489.109 0 0 1 -3.7818-50.3687q-.049-3.2931-.04-6.5865l-1.1531 1.5145 27.9573-8.2833 3.954-1.1714-1.21-.1584a164.7336 164.7336 0 0 1 19.7076 14.8964l-.46-1.1106q3.72 31.1183 7.5531 62.2229 4.7293 38.3727 9.647 76.722 2.96 23.0448 6.0039 46.0786a1.6249 1.6249 0 0 0 1.5706 1.5706 1.5783 1.5783 0 0 0 1.57-1.5706z" fill="#182547"/><path d="m188.1326 471.4343s90.5284 123.1629 84.571 161.2957c-7.7736 49.76-186.302 154.6211-202.619 164.1106a6.4207 6.4207 0 0 0 -1.9988 1.8207l-5.984 8.3775a6.4324 6.4324 0 0 1 -11.046-.9819l-25.4344-53.6185a6.4324 6.4324 0 0 1 2.0845-7.9993l180.3434-128.2176s-91.7278-114.9761-53.2493-158.3746" fill="#f35369"/><path d="m186.7765 472.227c3.5311 4.8049 6.9678 9.6812 10.3854 14.5671q12.2633 17.532 23.8752 35.5093c9.5237 14.7736 18.7106 29.7844 27.1485 45.2077 7.4621 13.64 14.6494 27.6944 19.5012 42.5063a67.6391 67.6391 0 0 1 3.6581 16.6638 27.1679 27.1679 0 0 1 -2.0965 12.3857c-4.32 10.6429-12.5066 19.8308-20.3585 28.0385-11.0461 11.5466-23.237 21.9888-35.6929 31.9741-14.0191 11.2384-28.5256 21.8643-43.2479 32.16q-21.3228 14.9112-43.24 28.949-17.6964 11.39-35.6794 22.3262-10.2448 6.233-20.59 12.3007a13.9632 13.9632 0 0 0 -4.4657 4.1107c-1.7326 2.4256-3.3516 5.0051-5.2288 7.32-2.5044 3.0888-6.7752 2.1436-8.4373-1.2-.66-1.3273-1.2716-2.6808-1.9069-4.02l-18.425-38.8418c-1.6531-3.4849-3.5361-6.9411-4.9884-10.5163-1.3548-3.335.7734-5.3485 3.1285-7.0229l17.3751-12.353 31.0824-22.0985 38.1052-27.0914 38.443-27.3316 32.096-22.8191 19.0644-13.5541 2.5593-1.8195a1.6059 1.6059 0 0 0 .3178-2.4667c-.207-.26-.4115-.5211-.6161-.7826-.75-.9594-.77-.9872-1.5771-2.043q-3.2315-4.23-6.3483-8.5462-10.3914-14.3463-19.7276-29.423a334.2054 334.2054 0 0 1 -20.8962-38.8375c-5.7214-12.7766-10.6658-26.3263-12.4395-40.2818-1.4349-11.29-.6721-23.4647 5.9257-33.1266a32.24 32.24 0 0 1 2.43-3.1128c1.3305-1.5126-.8828-3.7426-2.2211-2.2212-7.9368 9.0232-10.4122 21.0062-9.7922 32.7511.74 14.0262 5.1062 27.7414 10.4111 40.65a305.795 305.795 0 0 0 20.6339 40.4379c6.49 10.8605 13.4582 21.4363 20.8005 31.7385q3.5895 5.0366 7.3117 9.9771a36.1366 36.1366 0 0 0 3.7216 4.8361 1.8068 1.8068 0 0 1 .1624.2049l.3179-2.4667-10.646 7.5689-27.2852 19.3988-36.8048 26.1675-39.4938 28.0784-35.3869 25.1588-24.1617 17.1781-5.6794 4.0378c-.2916.2074-.5877.41-.8754.6224a8.1764 8.1764 0 0 0 -2.6159 10.2427c4.9664 10.9143 10.2849 21.6818 15.424 32.5156l8.3659 17.6363c.5287 1.1145 1.0284 2.249 1.5883 3.3483a8.0962 8.0962 0 0 0 10.8468 3.6c2.8614-1.471 4.7055-5.0786 6.5126-7.6086 1.3949-1.9529 2.5075-3.84 4.6155-5.07q3.8828-2.265 7.7446-4.5653 14.6221-8.694 29.0516-17.7075 20.5692-12.8281 40.7481-26.2693c15.1783-10.1336 30.17-20.5557 44.8258-31.4338 14.0764-10.4482 27.9-21.2914 40.9735-32.98 10.57-9.45 20.9128-19.4822 29.2777-30.9828 5.6965-7.8319 10.7614-16.8256 10.2232-26.8087a68.4143 68.4143 0 0 0 -3.5259-17 184.3385 184.3385 0 0 0 -8.22-20.6636 466.5966 466.5966 0 0 0 -24.8654-45.964c-8.6462-14.3455-17.7438-28.4182-27.1179-42.2977q-9.1036-13.4792-18.5846-26.7-1.3441-1.8685-2.702-3.7273c-1.1846-1.612-3.9118-.0468-2.7123 1.5854z" fill="#f35369"/><path d="m196.7361 366.0061c-9.95 10.6737-18.4722 14.386-30.7083 15.7292s-24.5551-.6409-36.8266-1.61-25.0978-.8209-36.2342 4.4237a35.0343 35.0343 0 0 0 -15.6786 14.4562 26.305 26.305 0 0 0 -3.2795 10.49c-.355 4.31 1.5443 8.8507.2727 13.0578-1.8476 6.1134-7.6875 9.1933-12.5578 12.5909-9.7859 6.8269-15.9095 19.4809-14.954 31.432.9338 11.6806 9.6159 20.8212 20.8563 23.48 13.5589 3.2073 26.9033-3.6782 36.84-12.4532a129.0242 129.0242 0 0 0 13.7957-14.0814c5.4692-6.5929 9.2847-11.9369 17.9109-14.3221 3.2387-.8956 6.546-1.58 9.684-2.7839 11.8763-4.5575 20.2671-16.26 29.0371-24.9408l19.9266-19.724c1.97-1.95 3.9867-3.9675 5.0758-6.5162s1.0378-5.79-.8641-7.8057" fill="#83c2e2"/><path d="m195.6256 364.8956c-4.4071 4.7029-9.3328 8.9194-15.2346 11.6206-5.7726 2.6422-12.2327 3.6514-18.5265 3.9829-16.3224.86-32.4638-3.2455-48.79-2.2476a55.9181 55.9181 0 0 0 -21.6053 5.2833 36.5648 36.5648 0 0 0 -14.948 13.6569 28.485 28.485 0 0 0 -3.8466 10.3443c-.5866 3.8884.4 7.5053.4757 11.3732.1348 6.9053-5.9962 10.6651-11.0577 14.0832-10.8271 7.3116-17.8876 20.1605-16.9071 33.3964.9062 12.2334 10.0386 22.27 21.8515 25.14 14.5313 3.53 28.6773-3.9926 39.2347-13.4329a157.1071 157.1071 0 0 0 15.8433-16.7871c3.9-4.6776 8.0983-8.7317 14.0866-10.4846 3.7215-1.0894 7.5311-1.812 11.122-3.3191a39.4179 39.4179 0 0 0 8.482-4.9547c5.325-4.0221 9.84-8.9408 14.3515-13.8262 5.1455-5.5719 10.5966-10.84 15.9855-16.1741l9.0894-8.9969c2.5053-2.48 5.1638-5.0094 6.3756-8.409a8.82 8.82 0 0 0 -1.4647-8.8261c-1.3389-1.52-3.5534.7088-2.2212 2.2212 2.1744 2.4683.8735 6.0846-.8241 8.4032-2.2189 3.0307-5.2725 5.5633-7.9323 8.196-5.65 5.5924-11.4044 11.0984-16.9417 16.8024-8.8919 9.16-17.0368 20.2064-29.8233 23.975-3.4372 1.0131-6.9935 1.6382-10.297 3.0637a26.1983 26.1983 0 0 0 -7.18 4.6923 59.4968 59.4968 0 0 0 -5.8441 6.4c-2.3367 2.8339-4.6995 5.6305-7.2391 8.2869-9.5155 9.953-21.4109 20.239-35.882 20.8956-11.9681.5431-23.7528-6.6948-26.9049-18.59-3.1837-12.0146 2.7125-25.8232 12.2828-33.2958 4.66-3.6387 10.422-6.2144 13.3286-11.6675 1.712-3.2118 1.7892-6.5409 1.34-10.0775a24.8263 24.8263 0 0 1 .4115-10.491 30.6673 30.6673 0 0 1 11.912-16.0626c5.7938-4.0872 12.7189-6.2467 19.6948-7.1956 27.283-3.7114 58.7538 10.7945 82.6949-8.1012a65.1935 65.1935 0 0 0 7.1289-6.6568c1.3814-1.4741-.8353-3.7-2.2211-2.2211z" fill="#83c2e2"/><g fill="#182547"><path d="m207.6142 415.51a93.4716 93.4716 0 0 0 73.7758-28.6565c6.4155-6.8036 11.7928-14.5813 18.6753-20.9121a2.4554 2.4554 0 0 1 4.1772.2317c7.74 8.0588 12.207 18.627 16.51 28.9389.6939 1.6631 1.402 3.4447 1.0745 5.2167a9.08 9.08 0 0 1 -1.867 3.5913c-24.5259 33.2836-65.563 53.742-106.9045 53.2957"/><path d="m207.6142 417.08a95.0147 95.0147 0 0 0 51.6658-11.344 92.8488 92.8488 0 0 0 21.2828-15.7808c7.0281-6.9955 12.6126-15.3 19.8017-22.1427a8.3809 8.3809 0 0 1 1.2282-1.1115c.5129-.3151.65-.2279 1.1173.17a22.22 22.22 0 0 1 2.4052 2.6125 53.3624 53.3624 0 0 1 4.2351 5.8 97.9349 97.9349 0 0 1 6.6965 12.7857c.9593 2.1466 1.8755 4.3121 2.7824 6.4813.9621 2.3015 2.2116 4.6731.8143 7.049a45.53 45.53 0 0 1 -3.8729 5.215q-2.0655 2.5747-4.2645 5.0386a131.9864 131.9864 0 0 1 -41.7561 31.113 130.033 130.033 0 0 1 -50.2838 12.5811q-3.2037.1316-6.41.0975a1.5715 1.5715 0 0 0 0 3.1412 132.6423 132.6423 0 0 0 52.7838-10.6421 135.3286 135.3286 0 0 0 44.4528-30.373 126.34 126.34 0 0 0 8.9022-10.2608 24.574 24.574 0 0 0 3.7869-5.6049c1.0084-2.528.1974-5.019-.7966-7.4065-3.7681-9.05-7.6467-18.1875-13.78-25.9313-1.35-1.7045-3.0045-4.1833-5.105-4.9933-2.4822-.9571-4.3584 1.22-5.956 2.79-3.707 3.6426-7.0043 7.6689-10.3286 11.6554-6.171 7.4-12.74 14.2191-20.7 19.7173a92.6047 92.6047 0 0 1 -51.9594 16.44c-2.25.0072-4.4976-.0769-6.7413-.2375-2.0171-.1445-2.008 2.9973 0 3.1411z"/><path d="m795.8923 409.3439c-21.59 5.7575-47.383 14.2484-67.7927 5.1522s-35.2941-35.7162-45.4472-55.6212c-.8344-1.6359-2.296-3.6-4.0288-2.9917a3.7232 3.7232 0 0 0 -1.1633.777 133.0325 133.0325 0 0 0 -23.5688 26.9488c-1.5077 2.2841-2.993 4.7723-3.0156 7.5091-.0319 3.8629 2.8018 7.0778 5.4631 9.878 18.4177 19.38 38.5954 39.759 64.8366 44.8767a100.4375 100.4375 0 0 0 21.9707 1.3776 221.3536 221.3536 0 0 0 28.3409-2.6039"/><path d="m795.4748 407.8294c-11.2242 2.9981-22.3994 6.3615-33.9137 8.0832-10.9271 1.634-22.7213 1.7579-32.9715-2.909-8.691-3.957-15.784-10.7348-21.7944-18.0249a165.5074 165.5074 0 0 1 -16.7264-25.4317q-1.7336-3.1362-3.3958-6.3111a67.879 67.879 0 0 0 -3.3-6.2431c-1.3776-2.0619-3.75-3.7271-6.1573-2.1347a27.5515 27.5515 0 0 0 -3.1811 2.7582q-1.6362 1.4955-3.2218 3.0451a133.5726 133.5726 0 0 0 -12.0928 13.5516q-2.7089 3.4839-5.1978 7.13c-1.5992 2.3526-3.3539 4.8317-3.9654 7.6618-1.2718 5.8856 3.0558 10.3572 6.7788 14.2659 3.7777 3.9661 7.5825 7.908 11.4955 11.7414 7.8229 7.6637 16.1184 14.9609 25.3616 20.8786 9.0982 5.825 19.21 10.2191 29.9251 11.9129 12.8463 2.0308 26.263 1.1381 39.1252-.3319q4.8438-.5537 9.6617-1.3106c1.9913-.3109 1.1458-3.3382-.8351-3.029a191.6634 191.6634 0 0 1 -38.48 2.4862 73.4256 73.4256 0 0 1 -31.68-8.82c-9.31-5.0309-17.6388-11.6573-25.3973-18.81-3.8932-3.5892-7.6529-7.3206-11.3493-11.1113q-2.823-2.8952-5.6067-5.828a31.45 31.45 0 0 1 -5.0106-6.0718 7.7156 7.7156 0 0 1 -.0835-7.5788 54.5268 54.5268 0 0 1 4.8043-7.377 130.1452 130.1452 0 0 1 11.19-13.5066q2.9735-3.1375 6.1461-6.0774a33.31 33.31 0 0 1 3.1019-2.7819c1.0226-.7292 1.7542.5482 2.25 1.3885 2.3072 3.9148 4.2014 8.1073 6.4018 12.088a174.3651 174.3651 0 0 0 16.273 24.906c5.8271 7.2667 12.6928 14.0849 20.9823 18.4958 19.8008 10.5364 43.6118 3.9719 63.8829-1.5535 2.6044-.71 5.2071-1.4257 7.8151-2.1223a1.5719 1.5719 0 0 0 -.835-3.029z"/></g><path d="m282.05 135.6947h425.7994v283.7105h-425.7994z" fill="#fff"/><g fill="#8c72cb"><path d="m707.8493 418.144h-419.3809c-1.8729 0-3.8267-.16-5.6944 0-.2376.02-.4851 0-.724 0l1.57 1.5706v-279.3955a27.13 27.13 0 0 0 0-3.8326 3.4214 3.4214 0 0 1 0-.4824l-1.57 1.5706h419.3809c1.8729 0 3.8267.16 5.6944 0 .2376-.02.4851 0 .724 0l-1.57-1.5706v248.8493c0 11.44-.347 22.942 0 34.3788.0048.1605 0 .3218 0 .4824a1.5715 1.5715 0 0 0 3.1411 0v-248.8492c0-11.44.3469-22.9421 0-34.3789-.0048-.1605 0-.3218 0-.4824a1.5935 1.5935 0 0 0 -1.5706-1.5706h-408.5154c-5.5167 0-11.0444-.1016-16.56 0-.2412.0045-.4828 0-.724 0a1.5934 1.5934 0 0 0 -1.5706 1.5706v248.8493c0 11.44-.3469 22.942 0 34.3788.0048.1605 0 .3218 0 .4824a1.5935 1.5935 0 0 0 1.5706 1.5706h408.5145c5.5167 0 11.0444.1017 16.56 0 .2412-.0044.4828 0 .724 0a1.5715 1.5715 0 0 0 .0004-3.1412z"/><path d="m282.05 136.0041h425.7994v24.4848h-425.7994z"/><path d="m707.8493 158.9184h-419.3809c-1.8729 0-3.8267-.16-5.6944 0-.2376.02-.4851 0-.724 0l1.57 1.5706v-24.4849l-1.57 1.5706h419.3809c1.8729 0 3.8267.16 5.6944 0 .2376-.02.4851 0 .724 0l-1.57-1.5706v24.4849a1.5715 1.5715 0 0 0 3.1411 0v-24.4849a1.5935 1.5935 0 0 0 -1.5706-1.5706h-408.5154c-5.5167 0-11.0444-.1016-16.56 0-.2412.0045-.4828 0-.724 0a1.5934 1.5934 0 0 0 -1.5706 1.5706v24.4849a1.5934 1.5934 0 0 0 1.5702 1.571h408.5149c5.5167 0 11.0444.1017 16.56 0 .2412-.0044.4828 0 .724 0a1.5715 1.5715 0 0 0 .0004-3.1416z"/></g><g fill="#fbd874"><circle cx="299.9479" cy="147.8877" r="2.3312"/><circle cx="314.9233" cy="147.8877" r="2.3312"/><circle cx="329.8986" cy="147.8877" r="2.3312"/></g><path d="m767.4428 474.9407s-26.4705 229.9506-48.9146 374.8024a4.0349 4.0349 0 0 1 -.89 1.97l-4.9547 5.9416a4.0544 4.0544 0 0 0 3.1138 6.651h59.2857a4.05 4.05 0 0 0 3.9694-3.2285c6.17-29.8036 23.21-224.8408 31.4038-291.4628 6.3381-51.5376 3.2026-100.2621-8.1933-123.0538" fill="#4268b3"/><path d="m765.8722 474.9407q-1.986 17.2512-4.0473 34.4938-5.1171 43.1246-10.4568 86.2222-7.0547 56.95-14.5544 113.8433c-5.1082 38.5779-10.3992 77.1339-16.1277 115.625q-1.0131 6.8073-2.0471 13.6114-.4857 3.1941-.9766 6.3875c-.2755 1.7915-.2378 4.1558-1.2936 5.6682-1.4134 2.0247-3.2412 3.7947-4.7778 5.7294-2.3787 2.9951-1.5525 7.6666 2.2864 9.02 2.5717.9063 6.0947.3348 8.74.3348h50.8506a9.821 9.821 0 0 0 3.6642-.3976c2.595-1.0023 3.3366-3.3466 3.7881-5.8049.5923-3.2248 1.0646-6.4721 1.5193-9.7186 3.44-24.56 5.8528-49.2767 8.3944-73.9413 3.445-33.4316 6.7133-66.8811 10.0333-100.3251 2.956-29.7776 5.8788-59.5623 9.2043-89.3015 1.9878-17.7765 4.2423-35.4862 4.91-53.3826.8137-21.8077.25-44.1166-4.282-65.5371a91.275 91.275 0 0 0 -7.0805-21.7c-.897-1.8117-3.6073-.2221-2.7123 1.5854 3.5077 7.0844 5.5562 14.8628 7.1 22.5846a215.448 215.448 0 0 1 3.5994 30.1011c1.3444 23.8049-.065 47.6662-2.9324 71.3091-3.21 26.47-5.8134 53.0169-8.4753 79.5463-3.3461 33.3473-6.5964 66.7041-9.9547 100.05-2.7948 27.75-5.5638 55.5117-8.9085 83.2019-.9639 7.98-1.9043 15.9858-3.3025 23.9039-.3509 1.9868-.4552 4.4-2.9655 4.6848a21.9308 21.9308 0 0 1 -2.4189 0h-50.8452c-2.1837 0-8.2795 1.0276-8.4944-2.3385-.0753-1.179.774-1.9782 1.4671-2.8093l3.1983-3.8353a9.6682 9.6682 0 0 0 1.7577-2.5455c.8189-2.0661.8671-4.6427 1.2032-6.8347 5.7186-37.2984 10.94-74.6729 15.9751-112.0691q7.6767-57.0081 14.789-114.09 5.8281-46.5068 11.3925-93.0461 2.8756-24.0356 5.6738-48.08.1244-1.0722.248-2.1446c.2307-2.0046-2.9123-1.9881-3.1412 0z" fill="#4268b3"/><path d="m783.5363 630.797q-6.3751 37.8318-11.2214 75.8993-4.8346 37.971-8.1274 76.1173-1.8581 21.5283-3.2229 43.0953c-.128 2.0186 3.0136 2.0109 3.1411 0q2.4224-38.2011 6.3829-76.2834 3.9428-37.8623 9.414-75.5444 3.09-21.2616 6.6626-42.4491c.3333-1.9773-2.6932-2.8272-3.0289-.835z" fill="#83c2e2"/><path d="m813.6754 516.2552-17.0172 9.399c-10.4813 36.3965-17.1313 74.2787-14.9252 112.09.7679 13.1552 2.7173 26.5977 9.1132 38.1194a46.7945 46.7945 0 0 0 7.4424 9.9885c4.6141-46.5736 9.037-90.7811 12.1674-116.2387a418.868 418.868 0 0 0 3.2194-53.3582z" fill="#182547"/><path d="m812.8827 514.8991-15.3027 8.4521a16.7371 16.7371 0 0 0 -1.7143.9469c-1.1677.8415-1.4059 3.3289-1.7743 4.645q-.7794 2.7846-1.5266 5.578-2.9279 10.95-5.3064 22.0379c-6.13 28.7985-9.4368 58.8046-6.5559 88.2165 1.4962 15.2746 5.5 30.87 16.4757 42.1876a1.59 1.59 0 0 0 2.6812-1.1106q3.5442-35.7738 7.2108-71.5354 1.517-14.5486 3.131-29.0871c1.0645-9.4774 2.3246-18.9361 3.2139-28.432 1.2619-13.474 1.9125-27.0088 1.8311-40.5428a1.5715 1.5715 0 0 0 -3.1412 0c.0726 12.0635-.4371 24.1275-1.4417 36.1485-.8288 9.916-2.12 19.7792-3.2457 29.6636-2.3567 20.7-4.4588 41.43-6.5483 62.1582q-2.0978 20.8113-4.1511 41.627l2.6812-1.1106c-14.5374-14.99-16.15-37.5548-16.4817-57.332a306.83 306.83 0 0 1 6.394-65.2923c2.43-12.1372 5.4417-24.1511 8.8612-36.0458l-.7218.9386 17.0172-9.399c1.7698-.9776.187-3.6914-1.5856-2.7123z" fill="#182547"/><path d="m788.2635 466.1747s3.1813 152.0909 25.42 199.4275c21.1295 44.9761 133.7645 122.3978 144.9456 130.0078a4.4693 4.4693 0 0 1 1.4129 1.5614l6.564 12.0832a4.4678 4.4678 0 0 0 8.394-2.1329v-70.3743a4.4605 4.4605 0 0 0 -1.8959-3.6533c-14.313-10.0551-105.0641-75.2493-113.9441-117.8296-9.6427-46.2409-10.9657-146.46-20.6084-157.4176" fill="#4268b3"/><path d="m786.6929 466.1747c.104 4.9539.2766 9.9071.4589 14.8587q.6893 18.7169 1.8193 37.4144c.991 16.43 2.2307 32.8481 3.8437 49.2295 1.6581 16.8385 3.6792 33.661 6.5237 50.3437 2.3351 13.6955 5.0736 27.5286 9.8081 40.6254 4.2887 11.8636 11.4088 21.9572 19.5867 31.4734 10.8989 12.6824 23.1677 24.181 35.7171 35.2044 13.3025 11.685 27.0914 22.81 41.1127 33.6178q17.31 13.3428 35.1145 26.0277 5.8142 4.1492 11.68 8.2257c2.1114 1.4658 5.2992 2.9555 6.5838 5.2384 1.5342 2.7264 2.9883 5.501 4.4817 8.25 1.2428 2.2879 2.299 5.098 4.9295 6.0879a6.1093 6.1093 0 0 0 8.2014-5.2372c.0594-.8061.0167-1.6275.0167-2.4344v-67.5044a6.6833 6.6833 0 0 0 -2.356-5.6122c-1.2437-.9856-2.5958-1.8539-3.886-2.7777q-6.2264-4.4579-12.3471-9.0609c-12.4872-9.3733-24.6956-19.13-36.4974-29.3545-13.5039-11.6988-26.612-24.0076-38.2548-37.5847a151.3616 151.3616 0 0 1 -14.2908-19.2208 63.4279 63.4279 0 0 1 -7.9576-17.7916 209.68 209.68 0 0 1 -3.7922-22.6415c-1.1885-9.0389-2.1431-18.1076-3.0142-27.182-1.825-19.01-3.24-38.0555-4.9786-57.0729-1.2988-14.2072-2.3218-28.76-5.5871-42.6857-.7817-3.3335-1.65-7.2107-3.9462-9.8749-1.322-1.5337-3.5354.6964-2.2211 2.2212.2712.3147-.0548-.1036.0874.1.0774.111.1586.22.2291.3355.1794.2941.3539.5879.5121.8943a13.0324 13.0324 0 0 1 .848 2.012 51.9392 51.9392 0 0 1 1.727 6.3173c1.3457 6.1325 2.18 12.3791 2.9317 18.6077 2.1092 17.4694 3.4164 35.0333 4.8957 52.5639 1.56 18.49 3.1189 37.0019 5.5926 55.3972a197.6593 197.6593 0 0 0 3.7544 22.1137 66.196 66.196 0 0 0 7.9335 17.8234c8.552 14.0983 19.9738 26.4591 31.6721 37.9843a520.3439 520.3439 0 0 0 39.2349 34.576q14.86 11.9513 30.3314 23.12 2.1078 1.5193 4.2292 3.0194a4.1157 4.1157 0 0 1 2.0088 3.5728c.0352 3.7377 0 7.4774 0 11.2151v55.6572c0 .9237.046 1.8608 0 2.7837a2.9147 2.9147 0 0 1 -5.5027 1.3446c-1.4046-2.33-2.6109-4.8063-3.91-7.1969-1.2123-2.2317-2.3063-5.2038-4.3845-6.7831-2.2175-1.6851-4.6076-3.178-6.8932-4.77q-14.4025-10.0311-28.4963-20.4976-20.0352-14.8551-39.374-30.622c-13.4911-11.07-26.7-22.5368-39.0951-34.831-10.1073-10.0251-20.1605-20.6807-27.5328-32.94-6.1462-10.22-9.2842-22.0288-11.9292-33.561a465.8367 465.8367 0 0 1 -7.8381-46.7676c-2.082-16.7652-3.641-33.594-4.9065-50.4394q-1.6386-21.8127-2.6358-43.6678-.6173-13.263-1.0056-26.5357c-.0335-1.2032-.0664-2.4064-.0917-3.61-.0424-2.0185-3.1837-2.0255-3.1412 0z" fill="#4268b3"/><path d="m143.6315 457.6011a98.5684 98.5684 0 0 1 5.0308-28.18 27.2916 27.2916 0 0 1 2.6625-6.0457c4.6945-7.3949 14.32-9.5571 22.9463-11.0785l1.6462-.29a62.6577 62.6577 0 0 1 26.5082 1.0271 62.5587 62.5587 0 0 1 25.4045 11.114c3.2336 2.3916 6.3036 5.185 8.1223 8.7722 3.6049 7.11 1.6279 15.6476-.4219 23.3515l-4.9008 18.4191a6.0874 6.0874 0 0 1 -.8676 2.1281 5.5418 5.5418 0 0 1 -3.0457 1.7261c-13.6694 3.9141-28.2423 4.3079-42.2785 2.44-13.4494-1.79-28.0543-4.9745-39.2817-12.9987-5.0212-3.5888-1.6755-5.4711-1.5246-10.3852z" fill="#f5744c"/><path d="m145.2021 457.6011a97.2029 97.2029 0 0 1 5.1158-28.1807c1.3026-3.814 3.166-7.1986 6.5046-9.5813a30.4863 30.4863 0 0 1 9.9572-4.3515 73.757 73.757 0 0 1 26.249-2.5521 85.062 85.062 0 0 1 13.3815 2.6194 60.7544 60.7544 0 0 1 12.2365 4.7257c7.2908 3.7725 15.7258 9.1488 17.3937 17.8024.8236 4.2735.1229 8.7468-.8191 12.9391-1.0417 4.6363-2.3716 9.2143-3.5932 13.8055l-1.8849 7.0843a33.7962 33.7962 0 0 1 -.9011 3.29 2.829 2.829 0 0 1 -2.0277 1.6705 73.527 73.527 0 0 1 -13.8605 2.87 112.4263 112.4263 0 0 1 -28.5163-.3288 116.14 116.14 0 0 1 -24.8506-5.7027 59.595 59.595 0 0 1 -11.4073-5.5777c-1.33-.8462-3.3085-1.8324-4.0153-3.3327a3.9526 3.9526 0 0 1 .2172-2.7831 18.9878 18.9878 0 0 0 .8205-4.4167c.0931-2.0209-3.0483-2.0162-3.1412 0-.13 2.8209-2.05 5.6884-.7613 8.4689a10.4121 10.4121 0 0 0 3.9121 3.8644 54.0278 54.0278 0 0 0 5.8858 3.4808c8.18 4.1832 17.1751 6.5262 26.1911 8.0682a128.8414 128.8414 0 0 0 29.5967 1.9554 98.1642 98.1642 0 0 0 15.2542-2.112 31.4943 31.4943 0 0 0 6.8924-1.9776c2.1592-1.0468 2.7864-3.0175 3.3633-5.1854q2.0421-7.6746 4.084-15.3493a81.2468 81.2468 0 0 0 2.9357-14.2275 22.7489 22.7489 0 0 0 -2.5-13.19c-2.2894-4.0048-5.9574-7.0079-9.69-9.6083a64.4306 64.4306 0 0 0 -12.4427-6.7238 86.6035 86.6035 0 0 0 -13.3343-3.8871 64.49 64.49 0 0 0 -15.318-1.6892 82.4716 82.4716 0 0 0 -14.6 1.72c-7.5883 1.4494-15.8753 3.7365-20.7459 10.206-2.8908 3.84-4.1755 8.8783-5.3945 13.4531a101.4372 101.4372 0 0 0 -2.8081 15.2191c-.27 2.4978-.4372 5.0043-.52 7.515-.0674 2.0216 3.0738 2.0192 3.1407-.0003z" fill="#f5744c"/><path d="m226.2986 477.0305a99.4741 99.4741 0 0 1 -34.1816 3.1689 122.6463 122.6463 0 0 1 -30.7463-5.8556 60.1782 60.1782 0 0 1 -15.4221-7.7141c-1.6528-1.1707-3.2237 1.552-1.5854 2.7123 8.6915 6.1559 19.0645 9.4616 29.424 11.4991a130.1808 130.1808 0 0 0 33.5662 2.568 95.55 95.55 0 0 0 19.78-3.35 1.5719 1.5719 0 0 0 -.835-3.029z" fill="#182547"/><path d="m214.9928 400.8857c-3.1317 7.5246-5.9734 15.1925-9.2895 22.6248-1.0876 2.4374-2.8914 4.8224-5.4912 5.4262a8.2515 8.2515 0 0 1 -4.4382-.4106c-5.2909-1.7683-8.7466-6.3594-7.3173-12.0019a31.11 31.11 0 0 1 2.798-6.4883 168.7241 168.7241 0 0 0 8.1385-18.4" fill="#f7c6aa"/><path d="m213.4783 400.4682c-2.1162 5.0958-4.1033 10.2437-6.194 15.35-1.0137 2.4756-1.9934 4.9933-3.1708 7.3967-.8778 1.7919-2.2346 3.7642-4.3189 4.2074-3.6914.785-8.3-2.29-9.6015-5.6893-1.6832-4.3963 1.3913-8.8318 3.2867-12.6133a174.9776 174.9776 0 0 0 7.4277-17.0665c.71-1.8956-2.3255-2.7142-3.0289-.8351a167.1739 167.1739 0 0 1 -7.5432 17.1719c-2.2764 4.4767-5.0685 9.3629-3.0573 14.4726a13.0536 13.0536 0 0 0 10.7 7.7461c6.0942.6217 8.6312-5.1641 10.6094-9.8189 2.7426-6.4536 5.23-13.011 7.9194-19.4865a1.5816 1.5816 0 0 0 -1.097-1.932 1.6086 1.6086 0 0 0 -1.932 1.097z" fill="#f7c6aa"/><path d="m210.79 411.5554c-.7151-.5079-1.4048-1.0524-2.0665-1.62-2.722-2.3334-5.0749-5.0632-7.6906-7.515l10.556-3.5238 3.4772 2.0618c-1.4627 3.5143-2.8624 7.0592-4.2761 10.597z" fill="#182547"/><path d="m211.5826 410.1993c-3.5217-2.5283-6.3-5.9317-9.4394-8.8891l-.693 2.625 10.556-3.5238-1.21-.1584 3.4772 2.0619-.7218-1.7737c-1.4621 3.5174-2.8629 7.06-4.276 10.5967a1.5813 1.5813 0 0 0 1.0969 1.932 1.6084 1.6084 0 0 0 1.932-1.097c1.4132-3.5371 2.814-7.0793 4.276-10.5966a1.5749 1.5749 0 0 0 -.7217-1.7737l-2.8888-1.7126a2.3032 2.3032 0 0 0 -1.8048-.5058c-.218.0535-.4333.1447-.646.2157l-7.5342 2.5151-2.37.7912a1.5871 1.5871 0 0 0 -.6931 2.6251c3.3479 3.1537 6.3178 6.6829 10.075 9.38a1.5831 1.5831 0 0 0 2.1489-.5635 1.605 1.605 0 0 0 -.5632-2.1485z" fill="#182547"/><path d="m194.6579 369.4321a15.3345 15.3345 0 0 1 6.7466-7.3464c7.521-4.0085 19.2755-1.9482 23.7772 5.7065 3.1931 5.43 3.6811 11.9872 6.7891 17.4466a1.95 1.95 0 0 1 .37 1.2463c-.1183.68-.8708 1.01-1.3743 1.4832-2.9287 2.7533-.9739 7.5186-1.5851 10.9608-.9869 5.558-5.6534 8.8821-10.9958 9.7145-6.6342 1.0337-13.3572-1.5369-18.1906-6.12-8.5358-8.0936-10.3441-22.618-5.5371-33.0915z" fill="#f7c6aa"/><path d="m196.0141 370.2248a14.2171 14.2171 0 0 1 9.5147-8.04 18.964 18.964 0 0 1 11.0871.6516 14.371 14.371 0 0 1 8.29 7.8331c2.165 4.7241 2.894 9.9748 5.3009 14.6107a3.9529 3.9529 0 0 1 .408.751c.0266.2236.1837-.036-.0907.2919-.32.3826-.8034.645-1.1358 1.04a6.75 6.75 0 0 0 -1.3736 2.7345c-.515 2.1047-.179 4.2654-.0946 6.3952a9.8445 9.8445 0 0 1 -5.8123 9.3937c-8.5661 4.2155-19.22-.9634-24.0772-8.3991a29.317 29.317 0 0 1 -2.0163-27.2633c.8246-1.8281-1.8815-3.4272-2.7123-1.5854a32.8737 32.8737 0 0 0 .7077 28.1869c4.8407 9.34 15.9055 15.7768 26.472 12.9819a14.0439 14.0439 0 0 0 9.978-8.7639c.788-2.3046.5833-4.6.4525-6.9824a10.1683 10.1683 0 0 1 .1736-3.2852c.3363-1.1986 1.0914-1.6472 1.9337-2.4609a2.9071 2.9071 0 0 0 .5177-3.4725c-.663-1.4423-1.4282-2.7855-1.9747-4.2877-.9735-2.676-1.6673-5.4431-2.607-8.13-1.6483-4.7137-4.0768-8.7951-8.543-11.2794a21.9469 21.9469 0 0 0 -14.6507-2.2258 17.2486 17.2486 0 0 0 -12.46 9.7194c-.8567 1.8188 1.8505 3.4152 2.7123 1.5857z" fill="#f7c6aa"/><path d="m223.3772 378.7452a2.5052 2.5052 0 0 0 -.2911.3652.3809.3809 0 0 0 -.0381.0609 2.8125 2.8125 0 0 0 -.1811.4333c-.0034.0116-.0063.0233-.0087.0352-.0293.1473-.0444.2994-.0607.4468a.4.4 0 0 0 -.0022.0692 2.8 2.8 0 0 0 .0656.4825l.009.0314.0068.0185q.04.0971.0817.1936.04.0974.0818.1936a.3553.3553 0 0 0 .0366.0621 1.5132 1.5132 0 0 0 1.565.75 1.1689 1.1689 0 0 0 .5839-.1864l.3179-.2456a1.57 1.57 0 0 0 .4039-.6931l.0561-.4175a1.5643 1.5643 0 0 0 -.2144-.7927.3473.3473 0 0 1 -.0393-.0681l.1583.3752a.3845.3845 0 0 1 -.0254-.0947l.0561.4175a.4169.4169 0 0 1 0-.0986l-.0561.4175a.4094.4094 0 0 1 .0275-.1014l-.1583.3751a.3755.3755 0 0 1 .0463-.0788l-.2456.3178a.3509.3509 0 0 1 .0456-.0472 1.6155 1.6155 0 0 0 0-2.2212l-.3179-.2456a1.5643 1.5643 0 0 0 -.7927-.2144l-.4175.0561a1.57 1.57 0 0 0 -.6931.4039z" fill="#182547"/><path d="m846.2678 457.6011a98.5684 98.5684 0 0 0 -5.0308-28.18 27.2916 27.2916 0 0 0 -2.6625-6.0457c-4.6945-7.3949-14.32-9.5571-22.9463-11.0785l-1.6462-.29a62.6577 62.6577 0 0 0 -26.5082 1.0271 62.5587 62.5587 0 0 0 -25.4038 11.114c-3.2336 2.3916-6.3036 5.185-8.1223 8.7722-3.6049 7.11-1.6279 15.6476.4219 23.3515l4.9008 18.4191a6.0874 6.0874 0 0 0 .8676 2.1281 5.5418 5.5418 0 0 0 3.0457 1.7261c13.6694 3.9141 28.2423 4.3079 42.2785 2.44 13.4494-1.79 28.0543-4.9745 39.2817-12.9987 5.0205-3.5888 1.6748-5.4711 1.5239-10.3852z" fill="#ec7ebd"/><path d="m847.8384 457.6011a97.1169 97.1169 0 0 0 -5.67-30.2668 20.9553 20.9553 0 0 0 -7.2243-10.0028 32.2554 32.2554 0 0 0 -10.8111-4.8245c-9.115-2.4718-18.8014-3.6983-28.21-2.6107a90.2863 90.2863 0 0 0 -14.3052 2.916 64.6793 64.6793 0 0 0 -13.09 5.3608c-7.8206 4.25-16.29 10.2913-17.8046 19.6892a36.7243 36.7243 0 0 0 .8785 13.7819c1.1156 5.0268 2.5687 9.9881 3.8924 14.963l2.0729 7.7928c.58 2.18 1.2984 4.0214 3.4622 5.0263a33.7917 33.7917 0 0 0 6.9593 1.9508c2.5169.5523 5.0563.9883 7.61 1.3323a114.0882 114.0882 0 0 0 30.476-.2363c9.0487-1.22 18.1207-2.965 26.6415-6.3311a60.4316 60.4316 0 0 0 12.1427-6.3243 10.0528 10.0528 0 0 0 3.7413-3.7477 6.0726 6.0726 0 0 0 .1452-4.1869 20.65 20.65 0 0 1 -.9065-4.282c-.0927-2.0129-3.2344-2.0242-3.1412 0a19.6 19.6 0 0 0 .855 4.5356 3.7565 3.7565 0 0 1 .1827 2.6642c-.73 1.5476-2.8118 2.5748-4.19 3.4439a56.09 56.09 0 0 1 -5.4464 3.0148c-7.6973 3.7321-16.1293 5.8049-24.5284 7.23a125.9631 125.9631 0 0 1 -27.6194 1.8611 93.4975 93.4975 0 0 1 -14.2113-1.8068 52.1828 52.1828 0 0 1 -6.8263-1.7273 2.7645 2.7645 0 0 1 -1.7936-1.4315 23.6376 23.6376 0 0 1 -.9634-3.4732l-3.8327-14.4047a72.614 72.614 0 0 1 -2.7152-13.1338c-.3216-4.2937.241-8.6034 2.6291-12.2739 2.3265-3.5759 5.9274-6.252 9.4476-8.5633a60.8051 60.8051 0 0 1 11.6676-5.996 89.6914 89.6914 0 0 1 12.4-3.4408c9.3417-2.1033 18.625-1.6264 27.9616.1718 6.8274 1.315 14.8717 3.2463 19.107 9.3012 2.5859 3.6969 3.7241 8.5031 4.8386 12.813a96.0278 96.0278 0 0 1 2.5662 14.169c.2419 2.3428.393 4.693.4709 7.0467.0669 2.0161 3.2084 2.0253 3.1413 0z" fill="#ec7ebd"/><path d="m833.0809 474.9741 4.603-7.9 1.1508-1.9751q.2694-.4626.5411-.924c.0394-.0669.092-.209.04-.0686q.2422-.2138-.049-.0236a.4022.4022 0 0 1 -.4713.047c.068.0089-.4309.0053-.4175-.1385-.0069.0738.2389.3518.2872.4238l.6439.9586 1.3523 2.0131a1.6083 1.6083 0 0 0 2.1489.5634 1.5857 1.5857 0 0 0 .5634-2.1488l-1.5455-2.3014a6.3728 6.3728 0 0 0 -1.76-2.1238 2.3885 2.3885 0 0 0 -2.8639.397 9.1752 9.1752 0 0 0 -1.4123 2.1347l-5.5236 9.48a1.5717 1.5717 0 0 0 2.7123 1.5854z" fill="#f7c6aa"/><path d="m762.7657 480.06a102.2125 102.2125 0 0 0 35.25 3.2645 125.5865 125.5865 0 0 0 31.5468-6.0192 62.9488 62.9488 0 0 0 15.9732-7.9628c1.6365-1.1591.0691-3.8842-1.5854-2.7123-8.4371 5.9757-18.4142 9.1479-28.4675 11.1416a127.1161 127.1161 0 0 1 -32.7033 2.5115 91.5522 91.5522 0 0 1 -19.1792-3.2523 1.5719 1.5719 0 0 0 -.835 3.029z" fill="#182547"/><path d="m774.8334 400.9587c3.1317 7.5247 5.9734 15.1926 9.29 22.6248 1.0875 2.4374 2.8913 4.8225 5.4911 5.4263a8.2539 8.2539 0 0 0 4.4383-.4106c5.2909-1.7684 8.7466-6.3594 7.3173-12.0019a31.11 31.11 0 0 0 -2.798-6.4883 168.6941 168.6941 0 0 1 -8.1385-18.4" fill="#3985ff"/><path d="m773.319 401.3763c2.392 5.76 4.6177 11.5874 7.0175 17.3442 1.86 4.4627 3.7451 10.9247 9.3021 11.8879 4.5862.7949 9.9168-2.2337 12.1961-6.1677 2.6849-4.6338.9582-9.5394-1.2965-13.9426a182.6063 182.6063 0 0 1 -8.59-19.207c-.7023-1.8761-3.74-1.0638-3.029.835q2.8859 7.71 6.4736 15.1321c1.14 2.3492 2.442 4.6313 3.5013 7.0182a10.5106 10.5106 0 0 1 1.091 6.3066c-.7766 3.7564-4.4272 6.423-8.1064 6.95-5.18.7425-6.9938-6.0035-8.5127-9.6479-2.3994-5.757-4.6255-11.5843-7.0176-17.3443a1.625 1.625 0 0 0 -1.932-1.097 1.5793 1.5793 0 0 0 -1.0969 1.9321z" fill="#3985ff"/><path d="m777.6481 415.7936a95.9971 95.9971 0 0 1 13.0434-9.341c7.524-4.766 15.8157-9.6808 24.6787-8.8015a10.0551 10.0551 0 0 1 5.54 2.0077c2.6555 2.231 3.1428 6.2772 2.0894 9.5816s-3.3477 6.0446-5.5925 8.6884c-7.871 9.27-16.4064 18.9252-28.0046 22.5806a12.6525 12.6525 0 0 1 -4.6684.7321 10.5536 10.5536 0 0 1 -7.2091-4.24 31.297 31.297 0 0 1 -4.0244-7.5774" fill="#ec7ebd"/><path d="m778.7587 416.9042a82.2033 82.2033 0 0 1 10.4009-7.6158 123.1181 123.1181 0 0 1 10.954-6.5156 31.0409 31.0409 0 0 1 11.5855-3.5962c3.4629-.2464 8.0884.0323 9.6764 3.7039 1.4112 3.2627.0891 6.854-1.7334 9.6412a80.1975 80.1975 0 0 1 -7.3027 8.8833c-4.9856 5.6388-10.3878 11.1309-17.0158 14.8282a34.0636 34.0636 0 0 1 -5.5783 2.5121c-2.2267.7605-4.5754 1.37-6.8585.4829-4.2581-1.6546-6.2343-6.3135-7.8717-10.2221a1.6258 1.6258 0 0 0 -1.932-1.097 1.5792 1.5792 0 0 0 -1.097 1.932c1.7187 4.1027 3.553 8.3028 7.295 10.9657 3.9977 2.8448 8.4827 2.1176 12.7938.4176 8.07-3.1821 14.6424-9.0284 20.4462-15.335 2.9375-3.1921 5.8605-6.47 8.4978-9.9167 2.51-3.28 4.4919-7.1636 3.9787-11.41-1.2257-10.1418-13.5636-9.4749-20.846-6.9242a70.1022 70.1022 0 0 0 -14.0674 7.3412 101.8918 101.8918 0 0 0 -13.5467 9.7038c-1.5129 1.347.7151 3.5621 2.2212 2.2212z" fill="#ec7ebd"/><path d="m795.1683 369.5052a15.3346 15.3346 0 0 0 -6.7465-7.3465c-7.521-4.0084-19.2755-1.9482-23.7772 5.7065-3.1931 5.43-3.6811 11.9872-6.7891 17.4467a1.95 1.95 0 0 0 -.37 1.2463c.1183.68.8708 1.01 1.3744 1.4832 2.9286 2.7532.9739 7.5186 1.5851 10.9608.9868 5.5579 5.6533 8.8821 10.9958 9.7145 6.6342 1.0336 13.3572-1.5369 18.1905-6.12 8.5357-8.0933 10.3441-22.618 5.537-33.0915z" fill="#3985ff"/><path d="m796.5245 368.7124a17.17 17.17 0 0 0 -10.9421-9.3624 21.8618 21.8618 0 0 0 -13.0571.4772 17.3813 17.3813 0 0 0 -10.0446 8.7524 53.0985 53.0985 0 0 0 -2.9011 7.9894c-.4138 1.361-.83 2.7221-1.3157 4.06-.5452 1.5017-1.3146 2.8448-1.9747 4.2877a2.9125 2.9125 0 0 0 .5178 3.4725c.7911.78 1.54 1.1769 1.8917 2.3043.6981 2.2393-.0212 4.75.0544 7.0447a12.9037 12.9037 0 0 0 7.38 10.9347c9.83 4.8284 21.7707-.2338 27.79-8.6692 6.35-8.8989 7.041-21.4479 2.601-31.2909-.83-1.84-3.5378-.2444-2.7123 1.5855a29.5459 29.5459 0 0 1 -.4715 24.5505c-4.0723 8.2311-13.4467 14.35-22.83 12.0873-3.8816-.936-7.3314-3.484-8.3619-7.4839-1.031-4.0019 1.2437-8.473-1.7108-12.0149a6.9362 6.9362 0 0 0 -1.014-.9471c-.2449-.1981-.3194-.2177-.3042-.3537 0-.001.4628-.7115.5-.7826a31.8322 31.8322 0 0 0 1.5259-3.49c.9254-2.4664 1.5933-5.0181 2.4136-7.5194 1.3749-4.1931 3.2365-7.9755 7.1674-10.2575a18.4824 18.4824 0 0 1 12.3489-2.0935 14.3866 14.3866 0 0 1 10.7367 8.3053c.8612 1.8265 3.5701.2339 2.7126-1.5864z" fill="#3985ff"/><g fill="#182547"><path d="m764.3009 380.9664a.3509.3509 0 0 1 .0456.0472l-.2456-.3178a.3755.3755 0 0 1 .0463.0788l-.1583-.3751a.4094.4094 0 0 1 .0275.1014l-.0561-.4175a.4169.4169 0 0 1 0 .0986l.0561-.4175a.3845.3845 0 0 1 -.0254.0947l.1583-.3752a.3473.3473 0 0 1 -.0393.0681 1.1688 1.1688 0 0 0 -.1863.584 1.6132 1.6132 0 0 0 .75 1.5649l.3752.1583a1.5816 1.5816 0 0 0 .835 0l.3752-.1583a1.58 1.58 0 0 0 .5635-.5635.3492.3492 0 0 0 .0366-.0621c.0607-.132.1213-.2652.1692-.4026a.3488.3488 0 0 0 .01-.0345l.0062-.0323q.0147-.1076.0289-.2153.0161-.1074.0289-.2153l.0014-.0163a.4082.4082 0 0 0 -.002-.0725c-.0162-.1469-.0316-.2995-.0607-.4468l-.0078-.032c-.0034-.0116-.0072-.023-.0117-.0343-.0488-.1234-.1081-.2628-.162-.3843l-.0082-.0179a.3841.3841 0 0 0 -.0382-.0609c-.0784-.1037-.1687-.2258-.2518-.3255l-.0108-.0124a.3341.3341 0 0 0 -.0285-.0273 1.6155 1.6155 0 0 0 -2.2212 0l-.2455.3179a1.5631 1.5631 0 0 0 -.2145.7927l.0561.4175a1.5705 1.5705 0 0 0 .4039.6931z"/><path d="m795.1684 369.5051a15.3362 15.3362 0 0 0 -6.7466-7.3463c-7.1438-3.8073-20.4643-2.58-25.4041 4.156 3.0343-1.1938 8.3577-2.1288 11.2182-3.6938a25.1754 25.1754 0 0 0 2.1555 6.6776 9.6757 9.6757 0 0 0 5.0318 4.6954q-.4326 2.8-.8651 5.6l.8917-.1365a20.6134 20.6134 0 0 1 5.4065-3.451 6.9718 6.9718 0 0 1 6.1949.3609c2.0758 1.3646 2.8927 4.06 2.8524 6.5436s-2.6821 3.5864-3.0083 6.0491c-.2316 1.7516 2.3028 7.3736 2.4837 9.1313 3.921-8.0014 3.4065-20.7057-.2106-28.5863z"/><path d="m796.5245 368.7124a16.9714 16.9714 0 0 0 -7.7952-8.1561 22.9276 22.9276 0 0 0 -9.4544-2.0948c-6.4015-.1493-13.6011 1.7385-17.6133 7.0606a1.5844 1.5844 0 0 0 1.7737 2.3072c3.8014-1.4548 7.9648-1.9377 11.5933-3.8521l-2.3072-.9387c1.1038 5.1222 3.008 10.4231 8.2843 12.47l-1.097-1.932q-.4326 2.8-.8651 5.6a1.6 1.6 0 0 0 1.9321 1.932c1.5133-.2317 2.4307-1.267 3.6685-2.1177a8.9627 8.9627 0 0 1 5.3905-1.9582 4.1761 4.1761 0 0 1 3.7855 2.77 5.1931 5.1931 0 0 1 .1354 4.2252c-.7122 1.2556-1.8069 2.1927-2.3246 3.5758a5.7935 5.7935 0 0 0 -.0173 3.5667c.33 1.3327.8054 2.6291 1.2513 3.9261.2125.618.4277 1.2357.62 1.86.069.2239.1378.4482.1975.6748.0165.0628.1642.7536.1259.4594.1759 1.3523 2.168 2.3746 2.9267.7927a33.6561 33.6561 0 0 0 2.936-15.1316 38.236 38.236 0 0 0 -3.1467-15.04c-.8292-1.84-3.537-.2447-2.7123 1.5854a34.4314 34.4314 0 0 1 2.7179 13.455 30.2206 30.2206 0 0 1 -2.5072 13.5462l2.9267.7927c-.371-2.8513-1.8941-5.4166-2.4182-8.2352-.2207-1.1871.5276-2.0823 1.2773-3.0461a6.6869 6.6869 0 0 0 1.6291-4.972c-.3354-4.0169-2.734-7.5742-7.0022-7.9212a10.8448 10.8448 0 0 0 -6.294 1.6663 26.3385 26.3385 0 0 0 -2.788 1.9637q-.34.2643-.6779.5324.5237-.1835.1254-.1009c-.2164.0464-.4415.0676-.6605.1011l1.932 1.932q.4326-2.8.8651-5.6a1.6348 1.6348 0 0 0 -1.097-1.932c-4.08-1.5827-5.2693-6.466-6.09-10.276a1.5879 1.5879 0 0 0 -2.3072-.9386c-3.3671 1.7765-7.3075 2.1824-10.843 3.5354l1.7737 2.3072c3.2867-4.36 9.77-5.6245 14.901-5.5048a19.4517 19.4517 0 0 1 7.7444 1.6071 14.2342 14.2342 0 0 1 6.7929 7.088c.8608 1.8278 3.5697.2352 2.7121-1.585z"/><path d="m781.5663 374.5854a31.2533 31.2533 0 0 1 -2.1784 7.9972 10.53 10.53 0 0 1 -5.7988 5.646c-2.1088.7157-4.4.499-6.6266.5463a27.312 27.312 0 0 0 -6.839 1.0218 2.9837 2.9837 0 0 0 -1.1439.5179 3.1528 3.1528 0 0 0 -.6992 1.0079l-4.7893 9.3021a25.8687 25.8687 0 0 0 -2.2914 5.4308 8.6944 8.6944 0 0 0 .335 5.7824c1.0847 2.308 3.4322 3.77 5.8223 4.6595a20.406 20.406 0 0 0 11.6222.7893 11.732 11.732 0 0 0 4.4637-1.9291 12.258 12.258 0 0 0 3.0839-3.6946c2.9589-5.07 3.8687-11.0664 4.2382-16.9248s1.085-16.5892 6.0913-18.7313"/><path d="m780.0518 374.1678c-.7262 4.0489-1.4977 8.8023-4.9715 11.4918-1.79 1.386-3.9186 1.54-6.1032 1.5408a36.94 36.94 0 0 0 -7.0231.5485 12.7682 12.7682 0 0 0 -3.23.9005 5.0224 5.0224 0 0 0 -2.1418 2.5448l-3.535 6.8659c-2.0455 3.9729-4.6554 8.3661-3.4511 13.0118 1.063 4.1 5.0526 6.3477 8.8546 7.4348a20.8417 20.8417 0 0 0 13.4732-.5184c4.0865-1.7089 6.3369-5.599 7.8622-9.5683a44.7079 44.7079 0 0 0 2.4914-12.8237 78.2217 78.2217 0 0 1 1.1723-10.5821c.5716-2.7012 1.4278-6.3848 4.1992-7.6513 1.8363-.839.2418-3.5472-1.5854-2.7123-2.4164 1.1043-3.7749 3.602-4.6524 5.9854a37.7731 37.7731 0 0 0 -1.8292 9.16c-.7673 7.3863-.6376 15.06-4.7257 21.5931a8.9516 8.9516 0 0 1 -4.335 3.8 16.8409 16.8409 0 0 1 -6.5 1.0224c-3.6129-.09-8.6954-1.172-10.7679-4.4989-2.3932-3.842.7478-8.6509 2.5066-12.0669l3.3069-6.4229a7.91 7.91 0 0 1 .7653-1.4723 2.3539 2.3539 0 0 1 1.3791-.6181 24.8118 24.8118 0 0 1 3.4459-.64c2.468-.2685 4.96.0141 7.42-.325a10.3989 10.3989 0 0 0 5.7907-2.7825c3.4164-3.2224 4.4183-7.9484 5.2134-12.3821.3545-1.9766-2.6721-2.8248-3.0289-.8351z"/></g><circle cx="282.05" cy="256.9628" fill="#fff" r="59.3125"/><g fill="#ec7ebd"><ellipse cx="282.05" cy="288.4453" rx="50.2719" ry="27.8299"/><path d="m339.7918 256.9628a57.3822 57.3822 0 1 1 -.6767-8.9327 58.172 58.172 0 0 1 .6767 8.9327 1.5715 1.5715 0 0 0 3.1412 0 60.9158 60.9158 0 1 0 -.7363 9.4291 63.84 63.84 0 0 0 .7363-9.4291 1.5715 1.5715 0 0 0 -3.1412 0z"/><path d="m339.7918 256.9628a57.3822 57.3822 0 1 1 -.6767-8.9327 58.172 58.172 0 0 1 .6767 8.9327 1.5715 1.5715 0 0 0 3.1412 0 60.9158 60.9158 0 1 0 -.7363 9.4291 63.84 63.84 0 0 0 .7363-9.4291 1.5715 1.5715 0 0 0 -3.1412 0z"/><circle cx="282.05" cy="231.6572" r="22.1121"/><path d="m302.5915 231.6572a20.5405 20.5405 0 1 1 -16.5027-20.1484 20.7378 20.7378 0 0 1 16.5027 20.1484 1.5715 1.5715 0 0 0 3.1412 0 23.6849 23.6849 0 1 0 -18.9754 23.21 23.9719 23.9719 0 0 0 18.9754-23.21 1.5715 1.5715 0 0 0 -3.1412 0z"/></g><circle cx="494.9497" cy="417.7882" fill="#fff" r="63.4664"/><path d="m556.8455 417.7882a61.5283 61.5283 0 1 1 -.7312-9.607 62.34 62.34 0 0 1 .7312 9.607 1.5715 1.5715 0 0 0 3.1411 0 65.0534 65.0534 0 1 0 -.7906 10.104 67.9175 67.9175 0 0 0 .7906-10.104 1.5715 1.5715 0 0 0 -3.1411 0z" fill="#5fb5aa"/><path d="m528.373 401.899-10.068-10.069-31.721 31.722-14.99-14.99-10.068 10.069 14.989 14.989-.058.058 10.069 10.068.058-.058.058.058 10.068-10.068-.058-.058z" fill="#baebf7"/><path d="m529.4839 400.7881-10.0683-10.0681a1.5945 1.5945 0 0 0 -2.2211 0l-10.7445 10.7445-17.034 17.034-3.9426 3.9427h2.2211l-14.9894-14.9894a1.5945 1.5945 0 0 0 -2.2211 0l-10.0686 10.0682a1.5945 1.5945 0 0 0 0 2.2211l14.9893 14.9893v-2.2212l-.0578.058a1.5946 1.5946 0 0 0 0 2.2211l10.0683 10.0683a1.5947 1.5947 0 0 0 2.2211 0l.0579-.0578h-2.2211l.0578.0578a1.5949 1.5949 0 0 0 2.2212 0l10.0679-10.0681a1.5947 1.5947 0 0 0 0-2.2211l-.0579-.058v2.2212l10.7447-10.7447 17.034-17.0339 3.9427-3.9427a1.5715 1.5715 0 0 0 -2.2211-2.2212l-10.7444 10.7447-17.034 17.034-3.9427 3.9426a1.5948 1.5948 0 0 0 0 2.2212l.0579.0579v-2.2211l-10.0683 10.0682h2.2212l-.0579-.0577a1.5947 1.5947 0 0 0 -2.2211 0l-.0579.0577h2.2211l-10.0683-10.0682v2.2211l.0579-.0579a1.5947 1.5947 0 0 0 0-2.2212l-14.9894-14.9894v2.2211l10.0683-10.0684h-2.2211l14.9894 14.9894a1.5945 1.5945 0 0 0 2.2211 0l10.7447-10.7447 17.034-17.034 3.9427-3.9427h-2.2211l10.0683 10.0684a1.5715 1.5715 0 0 0 2.2211-2.221z" fill="#baebf7"/><path d="m461.0235 186.7315a72.8779 72.8779 0 0 1 -16.8749-8.6 7.8721 7.8721 0 0 0 -8.9052 0 72.8779 72.8779 0 0 1 -16.8749 8.6c-9.904 3.4984-19.3523 4.34-27.34 2.9118a6.0139 6.0139 0 0 0 -7.08 5.9163v84.8464a34.9709 34.9709 0 0 0 17.4854 30.2855l34.0206 19.6417a8.4842 8.4842 0 0 0 8.4838 0l34.0206-19.6417a34.9708 34.9708 0 0 0 17.4853-30.2855v-84.846a6.0139 6.0139 0 0 0 -7.08-5.9163c-7.9885 1.4274-17.4367.5863-27.3407-2.9122z" fill="#fff"/><g fill="#8c72cb"><path d="m461.0235 186.7315a72.8779 72.8779 0 0 1 -16.8749-8.6 7.8721 7.8721 0 0 0 -8.9052 0 72.8779 72.8779 0 0 1 -16.8749 8.6c-9.904 3.4984-19.3523 4.34-27.34 2.9118a6.0139 6.0139 0 0 0 -7.08 5.9163v84.8464a34.9709 34.9709 0 0 0 17.4854 30.2855l34.0206 19.6417a8.4842 8.4842 0 0 0 8.4838 0l34.0206-19.6417a34.9708 34.9708 0 0 0 17.4853-30.2855v-84.846a6.0139 6.0139 0 0 0 -7.08-5.9163c-7.9885 1.4274-17.4367.5863-27.3407-2.9122z"/><path d="m461.441 185.217a70.8712 70.8712 0 0 1 -10.171-4.557q-2.3065-1.26-4.5191-2.6829a16.2292 16.2292 0 0 0 -4.7083-2.5 9.6338 9.6338 0 0 0 -4.6921 0 16.2284 16.2284 0 0 0 -4.7084 2.5 73.271 73.271 0 0 1 -9.6734 5.241 60.9461 60.9461 0 0 1 -21.9705 5.4658 53.5456 53.5456 0 0 1 -9.8971-.607 7.67 7.67 0 0 0 -7.4324 3.2549c-1.9487 2.849-1.2906 7.3669-1.2906 10.6518v77.7831a37.2975 37.2975 0 0 0 9.6414 25.37c4.4485 4.858 10.209 7.8273 15.8254 11.07l20.1479 11.6323 6.165 3.5593a10.4667 10.4667 0 0 0 10.6613.24c4.8054-2.7106 9.5585-5.5185 14.3364-8.2771l18.0867-10.4423a45.386 45.386 0 0 0 7.5276-5.2217 36.7472 36.7472 0 0 0 9.9761-14.63c2.0007-5.351 2.2689-10.8329 2.2689-16.4445v-79.0342a22.0945 22.0945 0 0 0 -.095-3.1379 7.6374 7.6374 0 0 0 -5.1644-6.1079 8.5815 8.5815 0 0 0 -4.1841-.1486 42.4482 42.4482 0 0 1 -5.0513.5036 57.1836 57.1836 0 0 1 -21.0785-3.4807c-1.9123-.668-2.7344 2.3655-.8351 3.029a59.9578 59.9578 0 0 0 21.5088 3.6072 46.3207 46.3207 0 0 0 4.7682-.4025c1.3589-.1838 2.6984-.5584 4.0369-.079a4.5059 4.5059 0 0 1 2.9534 4.2354c.0647 3.03 0 6.068 0 9.0982v43.9063q0 15.7588 0 31.5178a33.8564 33.8564 0 0 1 -11.88 25.8276c-4.1545 3.526-9.4038 6.02-14.1 8.7314l-19.5937 11.3127c-1.67.964-3.332 1.9424-5.01 2.8924-2.6878 1.5218-5.3433 1.0648-7.8748-.3967l-32.4972-18.7622a34.1159 34.1159 0 0 1 -16.6754-22.3985c-.8791-4.0911-.7237-8.2529-.7237-12.407v-77.6618a8.5928 8.5928 0 0 1 .3729-3.5136 4.5056 4.5056 0 0 1 2.5805-2.3821c1.3438-.4812 2.6748-.1051 4.0369.0791a48.1251 48.1251 0 0 0 10.1839.27 65.95 65.95 0 0 0 21.0458-5.4315 73.1447 73.1447 0 0 0 9.7522-5.1328 24.497 24.497 0 0 1 3.9434-2.4209 6.3636 6.3636 0 0 1 4.8783.1484 40.7741 40.7741 0 0 1 4.1454 2.6175q2.1528 1.3221 4.3927 2.4946a76.5324 76.5324 0 0 0 9.7552 4.25c1.9072.6806 2.7283-2.3534.8349-3.029z"/><path d="m568.5576 243.4806h91.1669a1.5715 1.5715 0 0 0 0-3.1412h-91.1669a1.5715 1.5715 0 0 0 0 3.1412z"/><path d="m568.5576 261.451h91.1669a1.5715 1.5715 0 0 0 0-3.1412h-91.1669a1.5715 1.5715 0 0 0 0 3.1412z"/><path d="m568.5576 279.4214h91.1669a1.5715 1.5715 0 0 0 0-3.1412h-91.1669a1.5715 1.5715 0 0 0 0 3.1412z"/><path d="m568.5576 297.3918h49.5282a1.5715 1.5715 0 0 0 0-3.1412h-49.5282a1.5715 1.5715 0 0 0 0 3.1412z"/></g><path d="m804.7242 415.1637c-5.6005 9.1287-14.413 15.7391-23.0131 22.1216-12.0848 8.9688-24.2049 17.9607-37.2655 25.4375-11.37 6.5088-23.6447 11.9047-36.662 13.3845-22.0036 2.5013-43.554-6.3026-63.8877-15.0749-18.224-7.8622-37.2535-15.9978-56.9012-16.27a2.17 2.17 0 0 0 -1.2664 3.9606q4.061 2.8626 7.9075 6.0141a5.6557 5.6557 0 0 0 -5.5684 9.5642 5.5314 5.5314 0 0 0 -.5793 10.9086c-4.1311-.0791-6.3278 5.5469-4.61 9.3048 1.1939 2.6123 3.4644 4.4384 5.9757 5.9366a2.0546 2.0546 0 0 0 3.0884-1.9313 281.3253 281.3253 0 0 0 30.3892 15.02 252.5135 252.5135 0 0 0 31.5565 10.0193c25.17 6.52 53.4235 10.5871 79.0863 4.4632 29.3811-7.0112 51.9324-24.1644 73.3536-44.6332 10.1242-9.6741 20.3634-20.6327 22.7467-34.4315a24.2875 24.2875 0 0 0 -.7867-12.4532c-3.1435-8.5681-13.3543-13.832-22.157-11.4225" fill="#3985ff"/><path d="m803.3681 414.371c-4.1633 6.7121-10.0778 12.0423-16.2486 16.8735-6.7257 5.2657-13.6727 10.2888-20.6245 15.25-13.953 9.9587-28.76 19.8325-45.2306 25.0648a70.439 70.439 0 0 1 -25.2043 3.3 101.9928 101.9928 0 0 1 -25.5656-5.121c-16.8408-5.3986-32.57-13.6436-49.22-19.5507a122.1647 122.1647 0 0 0 -25.3442-6.3534q-3.1908-.4067-6.4066-.5651c-1.7041-.0812-3.6614-.3864-5.04.8562a3.8212 3.8212 0 0 0 -1.1068 3.9226c.528 1.7557 2.49 2.6794 3.8619 3.69q2.6965 1.9861 5.2863 4.1089l1.5281-2.625a7.2254 7.2254 0 0 0 -7.0965 12.1892l.693-2.6251a7.0929 7.0929 0 0 0 -.5793 13.9376l.4175-3.0851c-5.4511.0739-7.9926 6.6723-6.1616 11.2091 1.1711 2.9016 3.63 5.0253 6.2248 6.6473a3.8726 3.8726 0 0 0 3.9644.4158 3.6948 3.6948 0 0 0 1.9969-3.3915l-2.3633 1.3562a279.78 279.78 0 0 0 31.6561 15.536 260.8987 260.8987 0 0 0 33.7171 10.4358c21.7856 5.4105 44.63 8.6754 67.0221 5.5385 20.19-2.8284 39.1011-11.4877 55.6625-23.18a231.4937 231.4937 0 0 0 22.9748-18.7783c7.3436-6.7467 14.744-13.6932 20.4818-21.9026 5.7115-8.1716 10.0581-18.7388 7.8839-28.8495-1.8834-8.7586-9.8822-15.0646-18.6958-15.7032a18.8865 18.8865 0 0 0 -6.1387.5946 1.5719 1.5719 0 0 0 .835 3.0289 17.5962 17.5962 0 0 1 19.86 9.4408c2.1516 4.6592 1.8192 10.1962.6143 15.0571a43.1182 43.1182 0 0 1 -5.7259 12.84c-5.2172 8.1379-12.3516 14.9035-19.3769 21.4592a239.6062 239.6062 0 0 1 -21.8652 18.3522c-15.5018 11.34-32.9825 20.0826-51.9471 23.7187-21.4978 4.1217-43.851 1.5184-65.0091-3.28a294.7983 294.7983 0 0 1 -32.26-9.1135 218.919 218.919 0 0 1 -30.76-13.9038q-3.6873-1.9724-7.343-4.0028a1.5863 1.5863 0 0 0 -2.3633 1.3561c.0011 1.6939-2.8382-.8146-3.3112-1.214a8.5058 8.5058 0 0 1 -3.086-4.4722c-.495-2.3637.6407-6.0144 3.5139-6.0533a1.5778 1.5778 0 0 0 .4175-3.085 4.1428 4.1428 0 0 1 -3.1955-4.3136 4.2487 4.2487 0 0 1 3.7749-3.5661c1.2016-.1694 1.463-1.8783.693-2.625a4.0888 4.0888 0 0 1 4.04-6.9392c1.4267.4194 2.7772-1.6052 1.5281-2.625q-2.538-2.0724-5.1618-4.0364-1.2323-.92-2.4847-1.8128c-.3583-.2557-.9253-.5394-.7088-1.0693.2128-.521.8433-.3724 1.2941-.362q1.609.0374 3.2154.1431 3.2289.2113 6.4345.6827a127.239 127.239 0 0 1 24.87 6.6821c16.2932 5.9555 31.7679 13.992 48.3448 19.197a104.7076 104.7076 0 0 0 25.052 4.9247 72.52 72.52 0 0 0 24.7941-2.8652c16.2236-4.7716 30.8758-14.1049 44.612-23.7293 6.992-4.8988 13.862-9.9821 20.682-15.1164 6.15-4.6294 12.2518-9.4971 17.05-15.5707a51.102 51.102 0 0 0 3.34-4.7372c1.0685-1.7227-1.6477-3.3018-2.7123-1.5854z" fill="#3985ff"/><path d="m145.6787 451.0769c-33.1188-39.2426-49.2464-93.4468-38.65-143.6918 12.2191-57.9409 60.9881-98.613 118.9075-107.42 6.2481-.95 12.7038-1.7311 18.911-.9039a1.2157 1.2157 0 0 1 .2249 2.3564 23.7947 23.7947 0 0 0 -7.5891 4.1376 19.0669 19.0669 0 0 1 9.94.0368 2.112 2.112 0 0 1 .0307 4.0778 21.0581 21.0581 0 0 0 -6.5375 3.1432 17.6873 17.6873 0 0 1 8.6392.8027 3.1552 3.1552 0 0 1 .1887 5.8606l-8.2481 3.6059 6.22 1.36a1.289 1.289 0 0 1 -.0705 2.5318 45.0232 45.0232 0 0 0 -6.51 1.3492c-4.0164 1.271-7.9777 4.3769-8.1914 8.5846a6.052 6.052 0 0 0 3.6617 5.4454 1.5263 1.5263 0 0 1 -.613 2.9136l-.0711-.0005c-2.3661-.0373-4.6192-.976-6.9567-1.3482-3.6678-.5838-7.4076.2439-10.9772 1.269a98.3948 98.3948 0 0 0 -56.764 145.9469c4.0006 6.5349 8.768 12.61 12.2645 19.4278s5.6791 14.6854 4.0083 22.1631-8.0073 14.2355-15.6634 14.5346" fill="#f7c6aa"/><path d="m146.7893 449.9664a178.4068 178.4068 0 0 1 -34.4757-64.0964c-6.88-23.2691-8.9365-48.1-4.9037-72.084a131.912 131.912 0 0 1 25.0536-58.1672 139.7008 139.7008 0 0 1 47.3229-39.1945 149.9255 149.9255 0 0 1 29.4247-11.3427 155.5288 155.5288 0 0 1 15.72-3.3789c3.3922-.5478 6.8025-1.0293 10.2318-1.2686 1.7809-.1243 3.5677-.1818 5.3527-.1356.9664.025 1.9322.08 2.8947.17a5.1915 5.1915 0 0 0 .9587.1025q.3636.0792-.03-.22a.3684.3684 0 0 1 .1806-.3957c-.2757-.14-1.5627.5776-1.8962.7183a25.7136 25.7136 0 0 0 -2.3284 1.1092 27.0836 27.0836 0 0 0 -3.9224 2.6616c-1.2877 1.0291.1222 2.9888 1.5281 2.6251a17.9024 17.9024 0 0 1 5.6942-.5426 16.1211 16.1211 0 0 1 2.9678.4652c.3682.0948.8075.1234.8673.573.1145.86-1.9024 1.0721-2.4243 1.2775a23.2328 23.2328 0 0 0 -4.8821 2.6141 1.5788 1.5788 0 0 0 1.21 2.8706 15.7835 15.7835 0 0 1 5.3576.1334c.9913.1984 2.6837.3526 3.208 1.3706.6868 1.3331-.5168 2.1-1.5589 2.5557l-7.6371 3.3388c-1.2419.5429-.8722 2.5978.3751 2.8707l3.3553.7339c.4787.1046 2.5529.8 2.833.5809-.0765.06-.1024-.2412-.1035-.2557-.0216-.2918.5041-.2664-.4057-.1208-.6269.1-1.254.1994-1.8792.3092a29.481 29.481 0 0 0 -4.5043 1.0783 15.44 15.44 0 0 0 -6.2506 3.8654 9.6209 9.6209 0 0 0 -2.75 6.12 7.43 7.43 0 0 0 3.3487 6.16c.3574.2538.8973.411 1.2142.6944-.03-.0265-.053-.03.01-.0364a12.8524 12.8524 0 0 1 -3.5281-.6309 22.9634 22.9634 0 0 0 -8.5189-.7771c-5.2037.6183-10.3571 2.4589-15.2049 4.3938a100.32 100.32 0 0 0 -13.181 6.3958 102.9367 102.9367 0 0 0 -22.6555 17.8531 98.4671 98.4671 0 0 0 -26.3278 53.0316 102.417 102.417 0 0 0 10.0892 62.1789c5.3149 10.2444 13.5311 19.0142 17.6127 29.8879 1.9688 5.2452 3.0184 11.069 1.6688 16.599a18.0479 18.0479 0 0 1 -7.868 11.0682 13.22 13.22 0 0 1 -6.1992 1.9633c-2.0112.1052-2.0236 3.2471 0 3.1412 10.5077-.55 17.4275-10.59 17.7884-20.4522.4488-12.2625-6.9027-22.7277-13.4173-32.438a102.5234 102.5234 0 0 1 -14.1978-30.1792 100.1242 100.1242 0 0 1 -3.3176-32.731 95.2249 95.2249 0 0 1 23.35-56.5229 100.1822 100.1822 0 0 1 22.646-19.24 97.07 97.07 0 0 1 13.1388-6.8263 71.1132 71.1132 0 0 1 15.1143-4.83 21.097 21.097 0 0 1 9.0766.6215c2.0494.5039 5.2228 1.4127 6.5849-.8381a3.214 3.214 0 0 0 .2935-2.66c-.4211-1.2738-1.4492-1.5639-2.4374-2.2713a4.3768 4.3768 0 0 1 -1.141-6.0816 10.71 10.71 0 0 1 5.5506-4.3074 24.3964 24.3964 0 0 1 3.9122-1.03c1.3357-.2589 3.08-.2072 4.2454-.9624a2.8765 2.8765 0 0 0 -.4435-4.9921 17.95 17.95 0 0 0 -3.311-.7881l-3.3553-.7339.3752 2.8706 4.353-1.903a31.5793 31.5793 0 0 0 4.4131-1.9859 4.7976 4.7976 0 0 0 .8044-7.2986c-1.2648-1.27-3.3186-1.666-5.0138-1.9431a20.3517 20.3517 0 0 0 -6.3467-.0091l1.21 2.8706a21.6933 21.6933 0 0 1 3.3256-1.9467c1.1235-.5223 2.3786-.7494 3.4822-1.2909a3.7149 3.7149 0 0 0 1.8759-4.4313c-.6846-2.2136-3.0122-2.6332-5.0159-2.9207a21.0588 21.0588 0 0 0 -8.3111.4611l1.5281 2.6251a22.73 22.73 0 0 1 4.4483-2.7623c1.29-.6117 3.1626-.8319 3.9811-2.112a2.8692 2.8692 0 0 0 -.0058-3.0519c-.8744-1.376-2.6462-1.3359-4.0873-1.4543-7.1028-.5836-14.3348.5668-21.3136 1.8093a154.1179 154.1179 0 0 0 -31.616 9.1874 146.026 146.026 0 0 0 -52.758 36.7148 133.9225 133.9225 0 0 0 -30.5867 57.0273c-6.1063 24.324-5.684 50.1007-.0574 74.4685a180.7289 180.7289 0 0 0 32.1309 68.3959q2.83 3.7212 5.8393 7.2992c1.3036 1.5483 3.5158-.6834 2.2211-2.2211z" fill="#f7c6aa"/><path d="m828.2877 426.5043c-3.1437-8.5682-13.3546-13.8321-22.1569-11.4225l-1.4065.0818c-5.6 9.1285-14.4129 15.7391-23.0133 22.1216-12.0846 8.969-24.205 17.961-37.2656 25.4377-11.37 6.5088-23.6447 11.9047-36.6619 13.3842-22.0035 2.5016-43.5541-6.3023-63.8873-15.0749-5.2057-2.2455-10.4773-4.5129-15.81-6.6137a246.214 246.214 0 0 1 -14.0836 45.4944c2.748 1.272 5.5205 2.49 8.3289 3.6268a252.5734 252.5734 0 0 0 31.5564 10.0192c25.17 6.5206 53.4234 10.5871 79.0861 4.4633 29.3815-7.0114 51.9326-24.1647 73.3538-44.6334 10.1245-9.6741 20.3634-20.6324 22.7469-34.4313a24.2938 24.2938 0 0 0 -.787-12.4532z" fill="#ec7ebd"/><path d="m829.8022 426.0868a20.6239 20.6239 0 0 0 -12.5574-12.0068 19.649 19.649 0 0 0 -8.7767-1.0275c-1.2238.1456-2.2277.4349-3.3792.52a2.173 2.173 0 0 0 -1.4752.4812 15.28 15.28 0 0 0 -1.6116 2.407c-4.09 5.8863-9.5936 10.6668-15.2135 15.0429-6.1982 4.8263-12.5762 9.45-18.9549 14.0334-12.9006 9.2706-26.4136 18.414-41.3107 24.17a74.3006 74.3006 0 0 1 -22.6582 5.1588 82.7 82.7 0 0 1 -23.5155-2.3624c-15.9838-3.7806-30.8359-10.922-45.929-17.1982q-2.9479-1.2258-5.9168-2.4a1.5778 1.5778 0 0 0 -1.932 1.097 248.54 248.54 0 0 1 -14.0836 45.4943 1.5637 1.5637 0 0 0 .7217 1.7737c17.2054 7.9423 35.6672 13.24 54.2 17.0584 18.1034 3.7305 36.8578 5.6451 55.2648 3.1775a123.0615 123.0615 0 0 0 46.8716-16.9769c13.9046-8.3747 26.3394-18.9754 38.0381-30.1684 5.9226-5.6665 11.7152-11.6066 16.2066-18.5029 4.4246-6.7937 7.6868-14.965 7.2727-23.1994a23.2118 23.2118 0 0 0 -1.2613-6.5705c-.6684-1.8934-3.7043-1.0781-3.029.835 2.7758 7.8636.3171 16.6787-3.5373 23.7452-3.8069 6.9792-9.1954 12.9335-14.8119 18.4966-11.1809 11.0747-23.1727 21.57-36.4137 30.1243-13.4534 8.6915-28.3444 15.2253-44.127 18.2185-17.72 3.3606-36.1085 2.1141-53.7564-1.07-8.8691-1.6-17.6308-3.7309-26.3169-6.1244a221.5208 221.5208 0 0 1 -26.6095-8.9231c-2.1543-.9-4.2858-1.8535-6.4054-2.832l.7217 1.7737a248.5355 248.5355 0 0 0 14.0837-45.4944l-1.932 1.097c24.8259 9.8047 49.9687 24.056 77.5782 21.9834 12.9315-.9707 25.159-5.7554 36.4747-11.8782 11.8707-6.4232 22.9277-14.2365 33.7854-22.22 11.0138-8.0983 23.2249-16.0139 30.5737-27.8618l-1.3562.7779c1.8357-.1068 3.5912-.6208 5.434-.6629a17.6132 17.6132 0 0 1 6.89 1.2754 17.1764 17.1764 0 0 1 9.7244 9.5751c.7102 1.8707 3.748 1.059 3.0296-.8365z" fill="#ec7ebd"/><path d="m823.154 452.1066a109.8515 109.8515 0 0 1 -25.4606 29.0179c-1.5785 1.2624.6569 3.4722 2.2211 2.2212a112.2662 112.2662 0 0 0 25.9518-29.6537c1.047-1.7353-1.6681-3.3161-2.7123-1.5854z" fill="#f35369"/><path d="m758.295 454.4473a109.7374 109.7374 0 0 0 33.8936-29.5149c1.222-1.61-1.5045-3.1768-2.7123-1.5854a106.0356 106.0356 0 0 1 -32.7663 28.388c-1.7656.9849-.1835 3.6991 1.5854 2.7123z" fill="#f7c6aa"/><path d="m782.6657 359.6994a29.2376 29.2376 0 0 0 -11.7729-8.675 12.7219 12.7219 0 0 0 -5.8646-1.1144 6.06 6.06 0 0 0 -4.8993 3.05 4.0335 4.0335 0 0 0 1.4419 5.2447 11.0107 11.0107 0 0 0 -6.49.5348 6.0416 6.0416 0 0 0 -3.6772 5.0818c-.0494 2.2042 1.82 4.409 4.0232 4.3163-1.0515.8514-2.2134 1.97-2 3.3063.2175 1.3626 1.8545 2.0948 3.2166 1.8738a9.4074 9.4074 0 0 0 3.6445-1.8828c4.8311-3.3325 10.4271-5.347 15.9524-7.3258" fill="#182547"/><path d="m783.7763 358.5888a31.0626 31.0626 0 0 0 -7.5213-6.5989c-2.9124-1.8183-6.3694-3.4667-9.8439-3.67-2.9613-.1733-6.2265 1.0921-7.6383 3.8477a5.6547 5.6547 0 0 0 2.0053 7.3936l1.21-2.8707c-4.2861-.7114-9.4247.0279-11.4868 4.41-1.7563 3.7319.5411 8.5558 4.9247 8.6083l-1.1105-2.6812c-1.9384 1.6049-3.6276 4.3961-1.4456 6.5968 2.0535 2.0711 5.0262 1.29 7.1791-.1223a57.2236 57.2236 0 0 1 7.741-4.4345c2.8882-1.3118 5.8828-2.3744 8.8669-3.4434 1.8892-.6768 1.0747-3.7132-.835-3.029a90.0944 90.0944 0 0 0 -12.96 5.42c-1.0271.5614-2.0314 1.1644-3.0039 1.8163a14.3714 14.3714 0 0 1 -2.84 1.7666c-.5111.1883-1.8017.3995-2.0408-.3636-.22-.7031 1.1275-1.6283 1.5595-1.986 1.0929-.9049.1566-2.666-1.1106-2.6812-2.5477-.03-2.91-3.1487-1.6759-4.8124 1.6928-2.281 4.8264-2.463 7.4029-2.0354 1.6692.277 2.8452-1.91 1.21-2.8707-1.6876-.991-1.2075-3.319.15-4.37 2.0525-1.589 4.8384-1.0661 7.0921-.2694a27.6712 27.6712 0 0 1 11.95 8.6c1.2859 1.5617 3.497-.6716 2.2212-2.2212z" fill="#182547"/><path d="m763.5924 398.2918a9.1688 9.1688 0 0 0 5.7809-4.287 1.5708 1.5708 0 1 0 -2.7123-1.5854 7.8213 7.8213 0 0 1 -.5307.7957l.2456-.3179a7.8349 7.8349 0 0 1 -1.4032 1.4l.3179-.2456a7.8935 7.8935 0 0 1 -1.649.9631l.3752-.1583a7.6864 7.6864 0 0 1 -1.26.4061 1.5837 1.5837 0 0 0 -1.097 1.932 1.6054 1.6054 0 0 0 1.9321 1.097z" fill="#f7c6aa"/><path d="m226.5168 392.8012a25.0154 25.0154 0 0 0 -2.1628-2.2525q-.5755-.5282-1.1837-1.0193a4.8455 4.8455 0 0 0 -1.7767-1.1348 1.9336 1.9336 0 0 0 -2.37 1.6311 12.1137 12.1137 0 0 0 -.1662 1.8727 4.4463 4.4463 0 0 0 1.62 3.6793 2.7919 2.7919 0 0 0 3.9675-1.0163 1.6846 1.6846 0 0 0 .1583-1.21 1.571 1.571 0 0 0 -2.8706-.3752 1.3808 1.3808 0 0 1 -.1244.21l.2455-.3179a1.4224 1.4224 0 0 1 -.2145.2153l.3179-.2455a1.5789 1.5789 0 0 1 -.2629.1565l.3752-.1584a1.54 1.54 0 0 1 -.3535.1007l.4175-.0561a1.4909 1.4909 0 0 1 -.3046.0035l.4175.0561a1.3262 1.3262 0 0 1 -.2942-.0767l.3752.1583a1.4736 1.4736 0 0 1 -.2923-.178l.3179.2456a1.887 1.887 0 0 1 -.2443-.2533l.2456.3179a2.49 2.49 0 0 1 -.283-.4977l.1583.3752a4 4 0 0 1 -.2383-.896l.0561.4175a7.71 7.71 0 0 1 .0494-2.0225l-.0561.4176a2.0444 2.0444 0 0 1 .0829-.421l-.1584.3752a.3883.3883 0 0 1 .0632-.104l-.2455.3179.0447-.042-.3179.2456.06-.0355-.3752.1583.0638-.02-.4175.0561a.3792.3792 0 0 1 .1352.0006l-.4175-.0561a.6333.6333 0 0 1 .1391.0424l-.3752-.1583a3.0445 3.0445 0 0 1 .5358.3656l-.3178-.2456a25.103 25.103 0 0 1 3.7552 3.5946 1.5816 1.5816 0 0 0 1.1106.46 1.5982 1.5982 0 0 0 1.1105-.46 1.58 1.58 0 0 0 .46-1.1106 1.7612 1.7612 0 0 0 -.46-1.1105z" fill="#182547"/><path d="m212.217 370.2771a1.6813 1.6813 0 0 1 .8334-.5792c3.4228-1.453 13.2761-4.1947 16.7-5.6477-5.335-5.5977-21.7043-5.5039-28.3455-1.9645a15.3362 15.3362 0 0 0 -6.7466 7.3463c-3.9039 8.5058-9.3645 27.5593-4.482 35.7942a182.3533 182.3533 0 0 0 11.6913-15.6532 1.9418 1.9418 0 0 0 .38-1.34 2.2106 2.2106 0 0 0 -.8047-1.0527 8.8092 8.8092 0 0 1 -2.6391-8.56 7.7889 7.7889 0 0 1 6.7379-5.7 6.9886 6.9886 0 0 1 7.0871 5.0068 30.3491 30.3491 0 0 1 -.5819-6.8335 1.6344 1.6344 0 0 1 .1701-.8165z" fill="#83c2e2"/><path d="m213.3276 371.3877c.7165-.7972 2.5864-1.0914 3.5717-1.42 1.58-.5267 3.1693-1.0268 4.7576-1.5287 2.8464-.8995 5.7529-1.7221 8.5106-2.8746a1.5939 1.5939 0 0 0 .693-2.625c-3.41-3.4744-8.8592-4.45-13.5077-4.7944-4.9783-.3693-10.4467-.032-15.1233 1.8482a16.2247 16.2247 0 0 0 -6.7906 5.1391 27.6618 27.6618 0 0 0 -3.667 7.1532 79.1632 79.1632 0 0 0 -4.4534 16.4534c-.8544 5.5725-1.4357 12.1815 1.5012 17.28a1.5844 1.5844 0 0 0 2.4667.3178 130.8478 130.8478 0 0 0 9.9174-12.946c1.5047-2.1343 3.9294-4.8419 1.4753-7.2058-2.6711-2.5729-3.65-6.8324-.8994-9.7614 2.8337-3.0177 8.13-2.317 9.3339 1.92.5582 1.9654 3.4086 1.1311 3.0289-.8351a28.6538 28.6538 0 0 1 -.463-3.44 9.1252 9.1252 0 0 1 .052-3.3743c.6691-1.9118-2.3644-2.7338-3.029-.835a10.9645 10.9645 0 0 0 -.1641 4.2093 35.6872 35.6872 0 0 0 .5752 4.2747l3.0289-.8351a8.5852 8.5852 0 0 0 -9.3657-6.0708 9.3974 9.3974 0 0 0 -7.7529 8.288 10.3369 10.3369 0 0 0 1.4091 6.2037 12.9415 12.9415 0 0 0 1.8987 2.3615c.336.3522.3792.0988.1143.5992-.1194.2254-.2711.4388-.41.6528-1.6041 2.4822-3.3909 4.8548-5.1607 7.22-1.8637 2.49-3.7107 5.0528-5.81 7.3531l2.4667.3178c-2.2567-3.9174-1.9031-9.0757-1.3867-13.3909a74.1485 74.1485 0 0 1 3.6748-15.2332c1.6675-4.8384 3.5878-9.8346 8.377-12.3674 3.7242-1.97 8.4474-2.3078 12.5783-2.2636 4.5194.0483 10.499.554 13.864 3.9825l.693-2.6251c-2.9637 1.2386-6.0934 2.11-9.152 3.0774-1.6474.5211-3.2956 1.0414-4.9307 1.6005-1.3486.4611-3.169.869-4.1433 1.9529-1.3481 1.4999.8663 3.7285 2.2212 2.2213z" fill="#83c2e2"/><g fill="#f5744c"><path d="m184.529 413.9236 2.3691-5.3146a158.2879 158.2879 0 0 0 26.8966 5.9785l-2.188 8.121c-1.327 4.9255-2.6842 9.9232-5.3085 14.2975-1.5711 2.6188-3.9481 5.1676-6.9985 5.3152a8.7506 8.7506 0 0 1 -5.7174-2.299c-5.9006-4.7751-8.3513-12.5416-10.1431-19.9178"/><path d="m185.8851 414.7163 2.3692-5.3146-1.7737.7218a163.2811 163.2811 0 0 0 27.3141 6.0345l-1.5147-1.988c-1.14 4.23-2.209 8.4867-3.4627 12.6845-1.11 3.7155-2.4388 7.608-4.7947 10.7416a7.9012 7.9012 0 0 1 -3.7287 2.965c-1.8793.5831-3.7406-.2845-5.2476-1.3814a21.4308 21.4308 0 0 1 -6.3089-8.0611 56.135 56.135 0 0 1 -3.7839-11.4316c-.48-1.9628-3.5093-1.1316-3.029.835 1.8774 7.686 4.497 15.9762 11.0372 20.9945 3.4661 2.66 7.6718 3.2339 11.2167.4127 3.3163-2.6394 5.1522-6.9278 6.55-10.8111 1.8873-5.2433 3.1324-10.7374 4.5807-16.113a1.5982 1.5982 0 0 0 -1.5145-1.9881 158.5814 158.5814 0 0 1 -26.479-5.9224 1.5783 1.5783 0 0 0 -1.7737.7218l-2.3692 5.3146c-.816 1.8305 1.89 3.43 2.7123 1.5854z"/><path d="m161.2236 391.1344a98.1916 98.1916 0 0 1 -13.393-38.1327 111.636 111.636 0 0 1 -41.348 15.15 179.42 179.42 0 0 0 39.1961 82.9251l16.1543-3.817c7.6561-.2991 13.9921-7.0564 15.6634-14.5346s20.3416-20.6017 12.6794-20.5795c-11.6648.0343-24.9516-14.4764-28.9522-21.0113z"/><path d="m162.58 390.3417a98.0132 98.0132 0 0 1 -13.2346-37.7575 1.5809 1.5809 0 0 0 -2.3072-.9387 111.3789 111.3789 0 0 1 -40.9728 14.9918 1.5994 1.5994 0 0 0 -1.097 1.932 180.3974 180.3974 0 0 0 27.2316 67.1443 182.7858 182.7858 0 0 0 12.3679 16.4739 1.5645 1.5645 0 0 0 1.5281.4039l15.0459-3.5552c1.0887-.2572 1.7-.2463 2.85-.4429a16.3188 16.3188 0 0 0 6.5485-2.7616 21.4967 21.4967 0 0 0 8.3027-12.0008c.8094-3.0651 2.73-5.5041 4.8448-7.9228 2.3355-2.6717 4.8821-5.1558 7.1765-7.8631 1.2443-1.4683 3.6294-4.0247 2.3859-6.1288a3.428 3.428 0 0 0 -3.0749-1.341 18.6593 18.6593 0 0 1 -6.1494-1.2741c-4.9219-1.8918-9.2625-5.3409-13.0345-8.9545a52.0805 52.0805 0 0 1 -8.4122-10.0049c-1.06-1.7166-3.7788-.1409-2.7123 1.5854a52.977 52.977 0 0 0 7.0132 8.7558 56.4061 56.4061 0 0 0 10.6041 8.7786c3.63 2.2673 7.7687 4.08 12.1017 4.2444.35.0133.7068-.0121 1.0554.0277-.4222-.0482.2692.0142.2979.0872-.0585-.1489-.269-.0816-.4013-.3192-.145-.26-.0971-.3628-.0807-.3761.1182-.096-.0206.1024-.0959.282.16-.3816-.1095.2019-.17.31a11.4726 11.4726 0 0 1 -.9062 1.3271c-2.0043 2.5611-4.38 4.8361-6.5651 7.2393-2.2116 2.4322-4.59 5.0136-6.0008 8.0175-.784 1.6687-1.0288 3.5017-1.7515 5.1967a18.6644 18.6644 0 0 1 -4.0429 5.9523 14.8582 14.8582 0 0 1 -5.752 3.6158c-1.3652.4434-2.7466.4618-4.1263.7661-5.278 1.1639-10.5253 2.487-15.7853 3.73l1.5281.4039a178.3674 178.3674 0 0 1 -34.0364-62.6462 175.58 175.58 0 0 1 -4.7559-19.5852l-1.097 1.932a113.6586 113.6586 0 0 0 41.7232-15.3085l-2.3072-.9386a100.18 100.18 0 0 0 13.5513 38.5079c1.0498 1.7237 3.7675.147 2.7126-1.5859z"/></g><path d="m147.0379 351.6455a111.3789 111.3789 0 0 1 -40.9728 14.9918c-1.9916.3086-1.1458 3.3359.835 3.029a113.6586 113.6586 0 0 0 41.7232-15.3085c1.7228-1.0518.1463-3.7695-1.5854-2.7123z" fill="#fbd874"/><path d="m438.1254 188.6576v130.9063a1.5715 1.5715 0 0 0 3.1411 0v-130.9063a1.5715 1.5715 0 0 0 -3.1411 0z" fill="#ec7ebd"/><g fill="#5fb5aa"><path d="m102.9708 777.0278q-14.6737-32.6172-29.3478-65.234l-45.9172 32.6454a6.4318 6.4318 0 0 0 -2.0844 7.9991l25.4346 53.6188a6.4322 6.4322 0 0 0 11.0458.9816l5.9837-8.3775a6.4248 6.4248 0 0 1 1.9991-1.8206c3.748-2.1795 16.0576-9.3933 32.8862-19.8128z"/><path d="m104.3269 776.2351q-11.4127-25.3689-22.8261-50.7377l-6.5217-14.4963a1.5751 1.5751 0 0 0 -2.1488-.5635l-26.903 19.127-15.78 11.2193c-1.0525.7483-2.1146 1.4849-3.1583 2.2454a8.1616 8.1616 0 0 0 -2.6944 10.2628c4.7165 10.2852 9.7031 20.4551 14.5526 30.6782l8.5342 17.991c.7034 1.483 1.4027 2.968 2.11 4.449a8.2066 8.2066 0 0 0 7.0863 4.8864 7.959 7.959 0 0 0 6.4441-2.8935c.7277-.8912 1.3625-1.8687 2.0305-2.804l3.2865-4.6012a9.1147 9.1147 0 0 1 2.6348-2.8572c7.8517-4.704 15.7538-9.3191 23.5677-14.0878q4.62-2.82 9.2222-5.669c1.7156-1.0619.14-3.78-1.5855-2.7123q-14.4839 8.9647-29.1527 17.6277c-1.1432.6726-2.2917 1.3362-3.4337 2.0107a10.92 10.92 0 0 0 -3.3605 3.2559c-1.7894 2.5054-3.5166 5.0708-5.375 7.5253a4.926 4.926 0 0 1 -8.4493-.8382c-.4522-.904-.8674-1.8286-1.3006-2.7418l-7.4627-15.7323-16.09-33.9182c-.858-1.8089-1.4492-3.64-.3507-5.5775a9.4037 9.4037 0 0 1 3.0622-2.7443l13.6969-9.7379 29.8481-21.2211.6054-.43-2.1489-.5634q11.4135 25.3687 22.8264 50.7374l6.5217 14.4965c.828 1.8405 3.5354.245 2.7123-1.5854z"/><path d="m211.3433 861.0767a4.05 4.05 0 0 0 3.9694 3.2286h59.286a4.0545 4.0545 0 0 0 3.1141-6.651l-4.9551-5.9418a4.0323 4.0323 0 0 1 -.89-1.9694c-2.6616-17.1752-5.38-35.5478-8.103-54.5907q-29.5756 6.8913-59.1515 13.7836c2.7525 25.1948 5.1145 44.3358 6.7301 52.1407z"/><path d="m209.8288 861.4942a5.7486 5.7486 0 0 0 5.5428 4.3817c.5149.015 1.0325 0 1.5475 0h56.0732c.5152 0 1.0325.0136 1.5475 0a5.7164 5.7164 0 0 0 5.354-3.7419c.8855-2.4016-.1328-4.4659-1.6479-6.2828l-3.949-4.7353a4.8586 4.8586 0 0 1 -1.0525-2.68q-.4862-3.1418-.9668-6.2845-1.0009-6.5441-1.9807-13.0913-2.0547-13.7247-4.032-27.4608-.4949-3.432-.9858-6.8646a1.5908 1.5908 0 0 0 -1.932-1.0969q-29.5758 6.8911-59.1516 13.7835a1.5759 1.5759 0 0 0 -1.153 1.5145c1.6682 15.2594 3.2741 30.5571 5.6025 45.7335.35 2.2818.7186 4.5631 1.1838 6.8247.4069 1.9787 3.4354 1.1413 3.0289-.835-.9366-4.5544-1.5567-9.1785-2.1815-13.7835-1.0078-7.4267-1.8878-14.8711-2.7444-22.3165q-.8984-7.8089-1.7482-15.6232l-1.153 1.5145q29.5757-6.8921 59.1516-13.7836l-1.9322-1.0967q3.7 25.8646 7.655 51.6922c.2941 1.9084.3814 3.8317 1.6191 5.4019.34.4316.6984.8491 1.05 1.2712 1.2555 1.5055 2.5377 2.9926 3.7682 4.5186 1.1719 1.4534.86 3.823-1.2379 4.2356a7.3164 7.3164 0 0 1 -1.3755.0452h-44.612c-4.5755 0-9.23.2506-13.8007 0a2.56 2.56 0 0 1 -2.4585-2.0755c-.4905-1.9599-3.5206-1.1292-3.0289.835z"/></g><path d="m201.1609 202.2534c-5.09-.8249-8.7243 3.35-9.7767 7.9473-1.1547 5.044-.9724 10.6256-.55 15.7481a75.3068 75.3068 0 0 0 2.8858 15.3922 74.1506 74.1506 0 0 0 2.6887 7.4742 35.72 35.72 0 0 0 3.3917 6.9133c1.2984 1.8182 3.905 3.528 5.8971 1.5882a4.074 4.074 0 0 0 1.0828-2.76c.0326-.4743.0091-.949.0269-1.4237.01-.2582.0942-.7435.0922-.7422 1.6882-1.0984.1157-3.8191-1.5854-2.7123-1.3986.91-1.6368 2.3156-1.6528 3.8811a5.7838 5.7838 0 0 1 -.0908 1.4488c-.3638.1487-1.1777-1.0249-1.3538-1.3042a52.8245 52.8245 0 0 1 -5.1428-12.141 71.692 71.692 0 0 1 -3.1943-26.224c.1564-2.3985.3547-4.9746 1.5509-7.1156.9428-1.6875 2.8336-3.2757 4.8957-2.9415 1.9775.3205 2.8285-2.7058.835-3.0289z" fill="#4268b3"/><g fill="#fbd874"><path d="m181.4887 411.7179a25.3948 25.3948 0 0 0 9.1479 4.76 1.571 1.571 0 0 0 .835-3.029c-.7459-.208-1.4817-.4489-2.2038-.7288-.18-.07-.36-.1416-.5386-.2165.2971.1247-.24-.1082-.29-.1312q-.5286-.24-1.0449-.5058-1.0322-.5319-2.0079-1.1648-.4871-.3159-.9578-.6561-.2352-.17-.4661-.346c.2451.1869-.21-.1693-.2524-.2032a1.6091 1.6091 0 0 0 -2.2211 0 1.5879 1.5879 0 0 0 0 2.2211z"/><path d="m215.8675 461.1091a76.11 76.11 0 0 1 -5.3741-7.3065c-1.45-2.2437-2.9686-4.8191-2.2287-7.5832.4993-1.8651 2.5-4.7078 4.7782-4.0782 2.6332.7278 2.8769 4.2973 3.0524 6.5006a1.5785 1.5785 0 0 0 3.0851.4176 15.3356 15.3356 0 0 1 1.9493-3.8868c.5731-.8267 1.5521-2.32 2.7391-2.1546a2.6376 2.6376 0 0 1 1.923 2.1267 7.749 7.749 0 0 1 -.65 4.1412 24.8123 24.8123 0 0 1 -9.6932 11.949c-1.6878 1.0989-.1153 3.82 1.5854 2.7123a28.8943 28.8943 0 0 0 7.5939-7.1977c2.0814-2.8466 4.0027-6.4251 4.3437-9.9833.3241-3.3826-2.0779-7.3831-5.9182-6.8406-1.8417.26-3.12 1.6328-4.1868 3.0446a18.2728 18.2728 0 0 0 -2.7155 5.2541l3.085.4175c-.28-3.5177-.9417-7.5885-4.5431-9.2216-3.34-1.5147-6.892.828-8.5405 3.7375-1.886 3.3289-1.3285 7 .4294 10.2452a62.8015 62.8015 0 0 0 7.064 9.9274c1.2923 1.5569 3.5038-.6758 2.2212-2.2212z"/><path d="m72.8783 801.4262q-1.8964-7.4606-3.9559-14.8779l-1.097 1.932c.73-.1443 1.811.7351 2.4136 1.1151a23.2964 23.2964 0 0 1 2.0894 1.4924c1.3192 1.0513 2.5576 2.2006 3.817 3.3214a27.9377 27.9377 0 0 0 8.4586 5.6381c1.1742.4493 2.194-.8671 1.932-1.932-1.7787-7.23-3.5636-14.4916-4.216-21.9272l-2.6812 1.1106 9.4117 7.8219c1.4786 1.2289 2.93 2.5059 4.4476 3.6854 1.4237 1.106 2.9673 1.7013 4.6774.8714 1.8183-.8823.2275-3.592-1.5854-2.7123-.6534.3171-2.9935-2.1334-3.4361-2.5012l-3.7647-3.1288-7.5293-6.2575c-.9345-.7766-2.8115-.3746-2.6812 1.1105.6775 7.7211 2.4811 15.2538 4.3283 22.7623l1.932-1.932c-3.4132-1.306-6.0678-3.9514-8.7519-6.3312a42.5017 42.5017 0 0 0 -4.2439-3.3976c-1.6222-1.1031-3.425-2.2394-5.4529-1.8383a1.5879 1.5879 0 0 0 -1.097 1.932q2.0594 7.4172 3.9559 14.8779c.4977 1.9579 3.5281 1.1282 3.029-.835z"/><path d="m273.0572 813.6854a56.9116 56.9116 0 0 0 -13.8408 7.0322 1.586 1.586 0 0 0 .7927 2.9267l7.9021.9344 4.0708.4813a29.0463 29.0463 0 0 0 3.7153.479c.2263-.0044.1719-.25.0244-.1127-.1693.157-.308.369-.4844.53-.4562.4163-.9764.77-1.4685 1.1424l-3.2856 2.4885-6.5713 4.9771a1.5963 1.5963 0 0 0 .3752 2.8706l10.94 3.9736c1.9032.6913 2.7233-2.3431.8351-3.0289l-10.94-3.9736.3752 2.8706 8.504-6.4409c1.8653-1.4128 6.137-3.7121 4.6575-6.6868a3.6036 3.6036 0 0 0 -3.0125-1.7921c-1.6956-.2336-3.4013-.4069-5.1011-.6079l-10.5361-1.2457.7927 2.9267a53.9179 53.9179 0 0 1 13.09-6.7155c1.8969-.6611 1.081-3.6968-.835-3.029z"/></g><path d="m187.7292 497.8594-4.1385 7.0163c-1.3525 2.2931-2.84 4.5509-4.0632 6.9155a6.4736 6.4736 0 0 0 .3131 6.5015c1.2214 2.2479 2.6166 4.4151 3.9176 6.6182q8.0322 13.6026 15.7768 27.3721 7.8035 13.8745 15.311 27.9128c4.9363 9.23 10.0042 18.4536 14.5286 27.8944 1.06 2.2123 1.7756 4.53 1.0731 6.9647a18.758 18.758 0 0 1 -3.4113 5.902 136.5659 136.5659 0 0 1 -9.2475 10.8438 218.2125 218.2125 0 0 1 -20.9637 19.2663c-7.4512 6.0963-15.1586 11.8683-22.8462 17.66q-12.6733 9.5483-25.3891 19.04c-16.8433 12.5263-33.8347 24.862-51.2138 36.6374q-3.2082 2.1738-6.4344 4.3211c-1.6747 1.1151-.1036 3.8369 1.5854 2.7123 17.608-11.7244 34.8008-24.0569 51.81-36.63 16.4552-12.1632 32.9681-24.3151 49.0442-36.9773a265.319 265.319 0 0 0 21.7316-18.8127c3.3818-3.3161 6.6374-6.7632 9.7123-10.3665 2.9947-3.5093 6.4867-7.2491 8.2325-11.5753 1.9617-4.8612-.2327-9.1631-2.44-13.4829q-3.6484-7.1421-7.3732-14.2448-7.393-14.0976-15.0843-28.036-7.6318-13.831-15.5544-27.4991-4.0218-6.9386-8.1178-13.834c-1.1819-1.99-3.4247-4.4336-2.1444-6.7921 1.278-2.3544 2.7229-4.6318 4.0839-6.9392l4.0131-6.8037a1.5717 1.5717 0 0 0 -2.7123-1.5854z" fill="#ec7ebd"/><g fill="#f7c6aa"><path d="m641.7531 463.8883 1.7312 9.7391.8656 4.87c.2289 1.2879.3549 2.8213 1.3777 3.77 2.5487 2.3653 5.51-1.4816 7.1337-3.1753a66.0743 66.0743 0 0 0 5.8291-7.0259 1.5827 1.5827 0 0 0 -.5634-2.1489 1.6058 1.6058 0 0 0 -2.1489.5635 59.967 59.967 0 0 1 -4.782 5.8028q-1.27 1.359-2.62 2.64c-.0431.0408-1.097.9407-1.09.9625a.39.39 0 0 1 .3728.09q.1688.1509-.0509-.156c-.0256-.1786-.0977-.362-.137-.5374-.5813-2.5957-.9394-5.2628-1.405-7.8819l-1.4839-8.3478a1.584 1.584 0 0 0 -1.932-1.097 1.6057 1.6057 0 0 0 -1.0969 1.932z"/><path d="m662.233 516.0345 5.77-7.0329 2.8852-3.5165 1.38-1.6817c.1856-.2263 1.4037-1.4076 1.349-1.6052l-.66.0436a1.1684 1.1684 0 0 1 .2523.3369c.1732.25.3206.523.4768.784q.5184.8662 1.0084 1.7488 1.0686 1.9256 1.9988 3.9238a60.4 60.4 0 0 1 2.9815 7.8473c.5892 1.9277 3.6222 1.1058 3.029-.835a66.0905 66.0905 0 0 0 -3.612-9.2614q-1.0713-2.2338-2.32-4.3767c-.6972-1.1972-1.4529-2.8293-2.9434-3.1739-1.6392-.379-2.62.93-3.5308 2.0408l-3.5124 4.2809-6.7738 8.256a1.6161 1.6161 0 0 0 0 2.2212 1.5827 1.5827 0 0 0 2.2212 0z"/><path d="m617.4351 490.938 8.2058 6.4991c.6744.5341 1.3527 1.0637 2.0234 1.6025.2869.23.2871.3983.2733-.1875-.0177-.7456.0783-.3954-.1463-.2824a5.0983 5.0983 0 0 0 -.9177.9022l-3.7728 3.7089c-1.4439 1.42.7777 3.64 2.2212 2.2212l4.2826-4.21a3.3952 3.3952 0 0 0 1.3754-2.5c-.0395-1.1359-.9654-1.7709-1.769-2.4073l-9.5548-7.5674a1.62 1.62 0 0 0 -2.2211 0 1.5813 1.5813 0 0 0 0 2.2211z"/><path d="m718.8953 486.9534-18.36.0135a1.5853 1.5853 0 0 0 -1.5145 1.1531 7.1166 7.1166 0 0 0 1.0936 4.82c.9039 1.6274 1.8614 3.2277 2.7921 4.84l2.82 4.8849c.9333 1.6169 1.7825 3.3566 2.8466 4.89a2.5945 2.5945 0 0 0 4.12.3608 27.9657 27.9657 0 0 0 3.1268-4.3926l6.4943-9.4723c1.146-1.6714-1.575-3.2442-2.7123-1.5854l-4.7853 6.98-2.2787 3.3236-1.2533 1.828c-.2478.3614-.5352 1.058-.9836 1.13h.8351q.1688.3163-.0786-.1111l-.3021-.5234-.6043-1.0468-1.3092-2.268-2.5177-4.3614-2.5177-4.3615c-.6355-1.1009-1.9814-2.734-1.7563-4.1l-1.5145 1.1531 18.36-.0135a1.5715 1.5715 0 0 0 0-3.1412z"/><path d="m735.9655 468.8471a28.5837 28.5837 0 0 1 5.743 4.8777 27.9648 27.9648 0 0 0 2.39 2.8185 2.6584 2.6584 0 0 0 3.6489-.1737 9.6 9.6 0 0 0 1.7725-3.4411l1.6893-4.2142 3.3786-8.4283a1.5812 1.5812 0 0 0 -1.0969-1.932 1.6085 1.6085 0 0 0 -1.932 1.0969l-2.896 7.2243-1.448 3.6122a33.6051 33.6051 0 0 1 -1.4081 3.4487c-.0483.09-.2223.2714-.204.3521q-.0093.1337.2336-.0195.47.2393.2193.0178c-.0424-.3065-.7882-.9967-.97-1.224a29.645 29.645 0 0 0 -2.1963-2.4523 32.2307 32.2307 0 0 0 -5.3381-4.2755c-1.7048-1.0973-3.2815 1.6206-1.5854 2.7124z"/><path d="m746.0394 514.7575a70.6648 70.6648 0 0 1 1.8661-7.4866q.56-1.81 1.2174-3.5882.341-.9214.7079-1.833.1574-.3906.3193-.7793.0839-.2007.17-.4.2437-.4428-.3214.175h-.835c.3183.0811.7336.6478.9653.8818.3931.397.7694.81 1.1414 1.2269.6961.78 1.3732 1.5776 2.1094 2.32a9.5984 9.5984 0 0 0 5.7976 3.0843 1.58 1.58 0 0 0 1.57-1.5706 1.6076 1.6076 0 0 0 -1.57-1.5706c-1.7619-.2-3.22-1.7361-4.4282-3.0688-.7526-.83-1.4726-1.69-2.2536-2.494-.8927-.919-2.0188-2.1751-3.439-1.8217-1.47.3659-1.8706 2.214-2.3594 3.4425q-.8044 2.0214-1.4807 4.0906a70.4843 70.4843 0 0 0 -2.2064 8.5566 1.6119 1.6119 0 0 0 1.0969 1.932 1.5851 1.5851 0 0 0 1.932-1.097z"/><path d="m789.14 460.0645-14.8166 7.096a1.5967 1.5967 0 0 0 -.5635 2.1488 55.0411 55.0411 0 0 0 5.5357 8.72c1.58 2.0392 4.1424 6.1772 7.24 4.4123a5.8771 5.8771 0 0 0 2.3562-3.2186c.5878-1.5992.9917-3.2868 1.4532-4.9259q1.51-5.3628 2.8024-10.7832c.47-1.9649-2.5581-2.8034-3.029-.8351q-1.0728 4.4843-2.2883 8.9323-.6092 2.2233-1.2554 4.4363a8.9782 8.9782 0 0 1 -1.2972 3.4078.88.88 0 0 1 -.3273.2741c-.0315.0112.2059.1348-.1025-.067a7.41 7.41 0 0 1 -1.3077-1.3808c-.9223-1.06-1.8019-2.1564-2.6285-3.293a54.1375 54.1375 0 0 1 -4.4393-7.2648l-.5635 2.1489 14.8166-7.096c1.8224-.8728.2308-3.5821-1.5854-2.7123z"/><path d="m818.3912 426.9336q-4.6716.3765-9.3267.9259-2.45.2908-4.8939.63c-1.4405.1981-3.0107.5548-2.9607 2.3813a6.5041 6.5041 0 0 0 .6124 2.0512q.408 1.0717.8453 2.1321c.5719 1.3878 1.1714 2.7641 1.8092 4.123a86.8635 86.8635 0 0 0 4.2516 7.94 1.5894 1.5894 0 0 0 2.7123 0q5.2954-8.0924 9.7823-16.671c.9358-1.7895-1.7741-3.3794-2.7123-1.5854q-4.4817 8.57-9.7823 16.671h2.7123q-2.1576-3.5784-3.9709-7.3474c-.578-1.2072-1.1315-2.4271-1.6479-3.6621q-.3791-.9068-.735-1.8233-.1785-.4578-.3517-.9178c-.05-.1331-.3717-.9162-.3816-.8822l-.4039.6931q-.3306.1506-.0786.0887.2225-.04.4469-.0662c.2863-.0413.573-.08.86-.1191q.9091-.1242 1.82-.2395 1.894-.2414 3.7917-.4529 3.7953-.4235 7.6024-.7274c2.0011-.1614 2.0184-3.3039 0-3.1412z"/><path d="m838.7808 426.9557a40.8218 40.8218 0 0 0 -4.272 4.9975c-1.1325 1.5588-3.1345 3.8232-1.8245 5.8a4.4528 4.4528 0 0 0 2.3317 1.5527 19.0066 19.0066 0 0 1 2.428 1.04 17.2223 17.2223 0 0 1 4.58 3.5371c1.3782 1.4849 3.5956-.74 2.2211-2.2211a20.2014 20.2014 0 0 0 -4.0767-3.3706 34.4006 34.4006 0 0 0 -4.4659-2.067c-.1138-.05-.3006-.22-.4091-.2221-.1792-.0036-.0022-.0881.01.0288.0567.5561.3128-.0953.4481-.312q.7313-1.1712 1.5473-2.2865a35.9153 35.9153 0 0 1 3.7035-4.2554 1.5715 1.5715 0 0 0 -2.2211-2.2211z"/><path d="m801.2756 402.09a48.1449 48.1449 0 0 0 4.166 6.1883q1.1161 1.4156 2.3436 2.7384c.8221.8855 1.77 2.1606 3.11 2.1214 1.4687-.0429 2.1348-1.5327 2.8022-2.6081l2.13-3.433 4.4312-7.1405c1.069-1.7225-1.6473-3.3015-2.7123-1.5854l-3.8347 6.1793-1.8748 3.021-.9374 1.51a4.7345 4.7345 0 0 1 -.9017 1.3037l.6931-.4039-.02-.0032.7927.2144c-.7746-.3476-1.4771-1.4065-2.04-2.0372-.6789-.76-1.3361-1.5423-1.9576-2.35a44.4874 44.4874 0 0 1 -3.4783-5.3008c-.992-1.7615-3.7064-.18-2.7123 1.5854z"/><path d="m756.8554 430.3883 6.6381 4.0256a7.1683 7.1683 0 0 0 3.3649 1.4685 3.0391 3.0391 0 0 0 2.7917-1.9346 20.486 20.486 0 0 0 1.3473-6.0524c.21-1.67.4438-3.6191 1.5058-4.9862a1.6226 1.6226 0 0 0 0-2.2211 1.5808 1.5808 0 0 0 -2.2211 0 11.134 11.134 0 0 0 -2.1382 5.142c-.2991 1.7843-.384 3.5979-.8387 5.3532a8.9722 8.9722 0 0 1 -.3707 1.1748 2.9166 2.9166 0 0 0 -.2189.4406c-.0525.3186-.0589-.3053.1428-.0575a4.2568 4.2568 0 0 0 -.8639-.4844c-.5349-.3224-1.0682-.6478-1.6023-.9716l-5.9514-3.6092c-1.733-1.0509-3.3135 1.6644-1.5854 2.7123z"/></g><path d="m814.6842 503.4331c3.2183 2.26 6.92 4.8279 8.3549 8.6674.8754 2.3419.7255 4.9246.7618 7.3821q.0566 3.8305.1538 7.66.3981 15.69 1.476 31.3525 1.0776 15.6579 2.833 31.2592c1.122 9.9712 2.2469 20.009 4.1486 29.867 1.7959 9.31 4.6765 18.3622 9.6934 26.4637 5.0967 8.23 11.5873 15.6089 17.7388 23.0539 6.37 7.7089 12.9013 15.2989 20.0119 22.3392 6.5765 6.5115 13.5735 12.58 20.6737 18.51 14.1285 11.7995 28.7589 23.1095 41.5132 36.4394q2.4139 2.5228 4.7259 5.14c1.3417 1.5175 3.5564-.711 2.2212-2.2211-12.3224-13.9364-26.8766-25.59-41.1841-37.388-7.1413-5.8888-14.2433-11.8361-21.0058-18.1605a254.1544 254.1544 0 0 1 -20.1513-21.3971c-6.3566-7.4973-12.8524-15.0334-18.5735-23.0327a71.0926 71.0926 0 0 1 -7.2736-12.4215 76.1528 76.1528 0 0 1 -4.4248-13.7336c-2.2481-9.6907-3.3546-19.6632-4.5195-29.53q-1.84-15.5865-3.0037-31.2431-1.163-15.6518-1.6471-31.344c-.1608-5.2136-.0091-10.4828-.3653-15.6848a15.6283 15.6283 0 0 0 -5.6192-10.8937 53.9344 53.9344 0 0 0 -4.9529-3.7968c-1.6578-1.1642-3.2292 1.558-1.5854 2.7123z" fill="#83c2e2"/><g fill="#f5744c"><path d="m718.5281 849.7431a4.0321 4.0321 0 0 1 -.8906 1.9694l-4.9546 5.9418a4.0544 4.0544 0 0 0 3.1141 6.651h59.2861a4.0505 4.0505 0 0 0 3.9694-3.2286c1.1063-5.3442 2.5619-16.0019 4.2536-30.2788q-30.3778-3.803-60.7564-7.607c-1.3497 9.1045-2.6933 17.9791-4.0216 26.5522z"/><path d="m717.0137 849.3256c-.32 1.5874-1.8413 2.9007-2.885 4.1524a29.7382 29.7382 0 0 0 -3.2417 4.0257 5.6916 5.6916 0 0 0 1.7566 7.4078 6.1511 6.1511 0 0 0 3.5461.9644c5.5431.0268 11.087 0 16.63 0h26.26c5.2615 0 10.5276.0639 15.7889 0a5.8 5.8 0 0 0 4.6976-2.2494c1.3493-1.7829 1.4658-4.492 1.8178-6.64 1.0776-6.5772 1.9077-13.1969 2.7227-19.8108q.3928-3.1881.77-6.378c.1086-.9147-.8137-1.4758-1.5706-1.5706q-30.3782-3.8031-60.7564-7.607a1.5613 1.5613 0 0 0 -1.5145 1.1531q-1.97 13.2821-4.0215 26.5522c-.3063 1.9776 2.72 2.83 3.0289.835q2.055-13.2693 4.0216-26.5522l-1.5145 1.1531q30.3781 3.8037 60.7564 7.607l-1.5705-1.5706c-.842 7.096-1.7048 14.1924-2.7472 21.2622-.3444 2.3356-.7056 4.67-1.1364 6.9913-.3234 1.7424-.6661 3.5982-2.8189 3.6833-4.4272.175-8.8968 0-13.3265 0h-43.931c-1.6512 0-3.6443.2655-4.3366-1.6961-.5656-1.6028.7648-2.7658 1.6861-3.8707 1.1554-1.3855 2.3263-2.76 3.4667-4.1574a6.4284 6.4284 0 0 0 1.4508-2.85c.3974-1.9735-2.6293-2.818-3.0289-.8347z"/><path d="m975 736.7473a4.46 4.46 0 0 0 -1.8963-3.653c-3.6815-2.5864-12.42-8.8212-23.5219-17.38q-14.0426 26.67-28.084 53.34c18.7806 13.9834 33.4511 24.0517 37.1312 26.5563a4.4635 4.4635 0 0 1 1.4131 1.5614l6.5641 12.0831a4.4679 4.4679 0 0 0 8.3938-2.1336z"/><path d="m976.5706 736.7473a6.2642 6.2642 0 0 0 -1.8024-4.3036 17.5211 17.5211 0 0 0 -2.2081-1.6482q-2.7452-1.944-5.4662-3.9216-8.4513-6.1344-16.7194-12.516a1.5784 1.5784 0 0 0 -2.1489.5635q-14.0422 26.67-28.0839 53.34a1.6232 1.6232 0 0 0 .5634 2.1489q11.8035 8.7846 23.8124 17.2885c4.3318 3.0654 8.7559 6.0077 13.069 9.0977 1.3579.9727 2.062 2.94 2.8365 4.3655l3.8232 7.0377c1.0069 1.8536 1.9171 3.6924 4.0174 4.5338a6.1312 6.1312 0 0 0 7.7938-3.1487c.819-1.8851.5132-4.3574.5132-6.37v-45.0448c0-7.0214.1866-14.0714 0-21.0909-.0029-.11 0-.2213 0-.3318a1.5715 1.5715 0 0 0 -3.1412 0v49.4137c0 6.8628.0273 13.7263 0 20.5891a3.0109 3.0109 0 0 1 -1.7983 3.0674c-1.9879.786-3.2449-.5755-4.1014-2.1521-2.032-3.74-3.9521-7.5694-6.1063-11.24-1.0581-1.8031-2.97-2.8282-4.65-3.9847q-3.3851-2.33-6.7485-4.691-10.65-7.4683-21.1327-15.1709-3.309-2.4294-6.6017-4.8807l.5635 2.1488q14.0416-26.67 28.0839-53.34l-2.1488.5635q7.7519 5.9724 15.6567 11.7429 2.6712 1.947 5.3626 3.8661c1.4907 1.062 3.5378 2.0041 3.621 4.068.0812 2.0143 3.2228 2.0247 3.1412-.0001z"/></g><path d="m718.1952 836.2338a10.0938 10.0938 0 0 1 2.7259-3.0862c.9014-.66 2.5643-1.7879 3.7564-1.6111.97.1439 1.0936 1.9522 1.1569 2.7143a10.6233 10.6233 0 0 1 -.3974 3.8661 9.7112 9.7112 0 0 1 -4.5592 5.9636c-.6025.2937-1.8288.6278-1.5628-.4747.2757-1.142 1.9545-1.8628 2.954-2.1405 1.2089-.3359 2.9077-.2019 3.5377 1.0771.7321 1.4863-.4172 3.3265-1.178 4.5661-1.06 1.7276 1.6555 3.3073 2.7123 1.5854 1.2079-1.9682 2.2965-4.3672 1.6089-6.7145a5.618 5.618 0 0 0 -5.0625-3.8066 8.465 8.465 0 0 0 -6.288 2.4213c-1.5441 1.5449-2.1041 4.2234-.4207 5.9037 1.63 1.6269 4.2073 1.0629 5.93-.0874a13.101 13.101 0 0 0 4.1176-4.4981 14.25 14.25 0 0 0 1.7511-5.8817 9.6092 9.6092 0 0 0 -1.1841-5.9464c-1.7325-2.4807-4.7711-1.706-7.0546-.5145a13.2632 13.2632 0 0 0 -5.2563 5.0787 1.5717 1.5717 0 0 0 2.7123 1.5854z" fill="#182547"/><path d="m932.1641 775.47a12.922 12.922 0 0 1 5.2945-6.4906c.9121-.563 2.6615-1.7267 3.6993-.9352.8139.6208.9954 2.0187 1.0731 2.9589.4463 5.4057-.74 11.5806-4.8477 15.3979l1.9033-.2456c.33.2339.1052.4906.3207.1988a4.5229 4.5229 0 0 0 .2756-.7773 12.1314 12.1314 0 0 1 .6291-1.27 12.81 12.81 0 0 1 1.8931-2.5723c1.3535-1.4219 3.3216-2.9863 5.3231-3.3 2.1417-.3354 3.0251 3.0534 3.4085 4.6319a32.68 32.68 0 0 1 .6422 7.1586c.0353 2.0191 3.1766 2.0255 3.1411 0-.0855-4.8839-.756-17.0547-8.5972-14.67a15.108 15.108 0 0 0 -7.3137 5.3508c-1.5251 1.9952-4.0905 5.99-1.3079 7.9611a1.5874 1.5874 0 0 0 1.9033-.2456 18.15 18.15 0 0 0 5.1714-9.5659c.7081-3.2792 1.1922-7.3611.1473-10.6139a5.1958 5.1958 0 0 0 -3.1179-3.5679c-1.9389-.6322-3.9555.2361-5.6228 1.2071a16.3359 16.3359 0 0 0 -7.0474 8.5535c-.6984 1.9 2.3363 2.72 3.029.835z" fill="#182547"/><g fill="#baebf7"><path d="m112.353 512.6193c-.5777 21.15 6.9211 41.3222 15.7846 60.1813 2.5249 5.3725 5.1812 10.6818 7.85 15.9838.9091 1.8059 3.62.2174 2.7123-1.5854-9.1914-18.259-18.5313-36.9847-21.9781-57.3286a88.764 88.764 0 0 1 -1.2278-17.2511c.0552-2.022-3.086-2.0206-3.1412 0z"/><path d="m97.4671 544.6676a147.5822 147.5822 0 0 0 8.5865 28.5346 1.6248 1.6248 0 0 0 1.932 1.097 1.5794 1.5794 0 0 0 1.0969-1.9321 147.5879 147.5879 0 0 1 -8.5864-28.5345c-.3838-1.9826-3.4119-1.1433-3.029.835z"/><path d="m756.44 300.3409-1.8632 24.5438c-.153 2.0162 2.9889 2.0064 3.1412 0l1.8632-24.5438c.153-2.0162-2.9889-2.0064-3.1412 0z"/><path d="m794.9011 302.5364a129.76 129.76 0 0 0 -13.93 25.5228 1.5821 1.5821 0 0 0 1.097 1.932 1.6078 1.6078 0 0 0 1.9319-1.0969 126.3446 126.3446 0 0 1 13.613-24.7725c1.1657-1.6567-1.5566-3.2279-2.7123-1.5854z"/><path d="m801.59 346.9832 23.233-22.2774c1.4619-1.4018-.7612-3.6211-2.2212-2.2212l-23.2329 22.2775c-1.462 1.4018.7611 3.621 2.2211 2.2211z"/><path d="m820.7192 373.8951 8.9813-8.3825a1.5837 1.5837 0 0 0 0-2.2212 1.6037 1.6037 0 0 0 -2.2211 0l-8.9813 8.3826a1.5836 1.5836 0 0 0 0 2.2211 1.6036 1.6036 0 0 0 2.2211 0z"/><path d="m676.1184 548.9335c12.4749 2.43 25.3206 4.8057 37.9519 2.0568 1.9743-.43 1.1388-3.4585-.8351-3.029-12.0469 2.6217-24.39.26-36.2818-2.0567-1.9748-.3847-2.82 2.6422-.835 3.0289z"/><path d="m683.8783 568.8628a124.9634 124.9634 0 0 0 18.3745 1.8853c2.0221.0557 2.0206-3.0855 0-3.1411a119.2255 119.2255 0 0 1 -17.5394-1.7732 1.6152 1.6152 0 0 0 -1.932 1.0969 1.584 1.584 0 0 0 1.0969 1.9321z"/></g></svg>