<svg xmlns="http://www.w3.org/2000/svg"  viewBox="0 0 50 50" width="50px" height="50px"><path d="M 37.96875 2.28125 C 37.4375 2.375 37.082031 2.789063 36.90625 3.125 L 29.90625 17 C 29.007813 15.796875 27.617188 15 26 15 C 23.972656 15 22.28125 16.253906 21.5 18 C 20.890625 18 20.335938 18.15625 19.78125 18.3125 C 19.054688 17.558594 18.125 17 17 17 C 16.496094 17 16.054688 17.175781 15.625 17.34375 C 15.113281 17.164063 14.582031 17 14 17 C 11.539063 17 9.59375 18.839844 9.1875 21.1875 C 6.839844 21.59375 5 23.539063 5 26 L 3 26 C 2.96875 26 2.9375 26 2.90625 26 C 2.390625 26.046875 1.996094 26.480469 2 27 L 2 30.625 C 2 35.492188 4.667969 39.832031 8.125 42.9375 C 11.582031 46.042969 15.859375 48 19.53125 48 L 30.46875 48 C 34.140625 48 38.417969 46.042969 41.875 42.9375 C 45.332031 39.832031 48 35.492188 48 30.625 L 48 27 C 48 26.449219 47.550781 26 47 26 L 45.84375 26 C 45.542969 25.011719 44.828125 24.214844 43.9375 23.6875 C 43.785156 21.824219 42.367188 20.347656 40.53125 20.09375 C 40.246094 19.421875 39.832031 18.835938 39.3125 18.34375 L 46.1875 8.65625 C 46.535156 8.15625 46.746094 7.261719 45.625 6.46875 C 44.507813 5.675781 43.734375 6.332031 43.40625 6.84375 L 36.9375 17.09375 C 36.632813 17.03125 36.324219 17 36 17 C 34.675781 17 33.542969 17.597656 32.65625 18.4375 C 32.453125 18.359375 32.238281 18.292969 32.03125 18.21875 L 39.84375 4.65625 C 40.144531 4.125 40.28125 3.214844 39.09375 2.53125 C 38.648438 2.273438 38.285156 2.222656 37.96875 2.28125 Z M 26 17 C 27.453125 17 28.652344 18.019531 28.9375 19.375 L 29.15625 20.4375 L 30.1875 20.125 C 30.480469 20.042969 30.742188 20 31 20 C 31.507813 20 31.996094 20.132813 32.4375 20.375 L 33.15625 20.78125 L 33.6875 20.125 C 34.246094 19.4375 35.054688 19 36 19 C 37.410156 19 38.574219 19.949219 38.90625 21.25 L 39.09375 22.0625 L 39.90625 22 C 40.097656 21.992188 40.125 22 40 22 C 41.117188 22 42 22.882813 42 24 C 42 23.90625 41.980469 23.953125 41.96875 24.125 L 41.9375 24.875 L 42.65625 25.125 C 43.109375 25.28125 43.480469 25.601563 43.71875 26 L 27 26 C 27 25.449219 26.550781 25 26 25 C 25.449219 25 25 25.449219 25 26 L 7 26 C 7 24.332031 8.332031 23 10 23 L 11 23 L 11 22 C 11 20.332031 12.332031 19 14 19 C 14.429688 19 14.839844 19.082031 15.21875 19.25 L 15.65625 19.46875 L 16.09375 19.25 C 16.390625 19.097656 16.679688 19 17 19 C 17.710938 19 18.328125 19.351563 18.6875 19.90625 L 19.125 20.59375 L 19.875 20.3125 C 20.382813 20.117188 20.929688 20 21.5 20 C 21.667969 20 21.824219 20.011719 22 20.03125 L 22.875 20.125 L 23.09375 19.28125 C 23.417969 17.972656 24.585938 17 26 17 Z M 15 21 C 14.449219 21 14 21.449219 14 22 C 14 22.550781 14.449219 23 15 23 C 15.550781 23 16 22.550781 16 22 C 16 21.449219 15.550781 21 15 21 Z M 18 23 C 17.449219 23 17 23.449219 17 24 C 17 24.550781 17.449219 25 18 25 C 18.550781 25 19 24.550781 19 24 C 19 23.449219 18.550781 23 18 23 Z M 33 23 C 32.449219 23 32 23.449219 32 24 C 32 24.550781 32.449219 25 33 25 C 33.550781 25 34 24.550781 34 24 C 34 23.449219 33.550781 23 33 23 Z M 4 28 L 46 28 L 46 30.625 C 46 34.757813 43.710938 38.609375 40.5625 41.4375 C 37.414063 44.265625 33.398438 46 30.46875 46 L 19.53125 46 C 16.601563 46 12.585938 44.265625 9.4375 41.4375 C 6.289063 38.609375 4 34.757813 4 30.625 Z"/></svg>