<svg xmlns="http://www.w3.org/2000/svg"  viewBox="0 0 50 50" width="50px" height="50px"><path d="M47 21.017V21H37c-.002 0-.003 0-.005 0-3.71.019-10.548.596-14.659 4.252-.688.612-1.97 1.75-2.317 3.558-.39 2.016.598 3.56 1.318 4.687.315.494.709 1.108.673 1.362-.029.207-.587 1.657-10.01 2.544V27v-2h5c.28 0 .54-.12.73-.32L19.29 23l.44-.47c.18-.2.28-.46.27-.72-.01-.27-.13-.52-.32-.7L19.56 21l-1.88-1.73C17.49 19.09 17.25 19 17 19H7.94 6c-.28 0-.52.11-.71.29-.04.04-.07.09-.1.13-.03.04-.06.09-.08.14-.03.04-.05.09-.05.13C5.02 19.79 5 19.89 5 20v4c0 .55.45 1 1 1h4v2 10.573C7.531 37.76 4.564 37.91.975 38 .423 38.014-.014 38.473 0 39.025.014 39.569.459 40 1 40c.008 0 .017 0 .025 0 19.701-.496 22.664-2.734 22.965-4.86.14-.987-.424-1.868-.969-2.72-.628-.982-1.277-1.998-1.039-3.23.203-1.055.911-1.757 1.682-2.442 3.484-3.097 9.599-3.659 12.671-3.736-3.917 1.068-7.534 2.578-8.471 4.624-.306.666-.5 1.714.304 2.919 1.182 1.772 4.237 2.116 7.473 2.479 3.108.349 6.631.745 7.488 2.458.005.008.438.808.303 1.848-.482 3.696-11.287 7.097-27.527 8.665-.55.053-.953.542-.899 1.092C15.055 47.613 15.49 48 15.999 48c.032 0 .064-.001.097-.004 10.577-1.021 28.449-3.73 29.318-10.397.223-1.704-.469-2.961-.52-3.046-1.319-2.639-5.239-3.08-9.03-3.506-2.516-.283-5.367-.604-6.032-1.601-.312-.468-.251-.757-.149-.978.941-2.058 8.114-4.309 17.441-5.475.548-.068.937-.568.868-1.116C47.929 21.371 47.498 21.018 47 21.017zM7 23v-2h9.61l.97.9L16.56 23H7zM16.02 7.69l2.18 2.91c.19.25.49.4.8.4s.61-.15.8-.4l5.15-6.87 7.22 10.82c.17.27.47.44.79.45.31 0 .62-.13.82-.38l3.2-4L43.858 19h2.518L37.79 8.39C37.61 8.15 37.32 8 37.01 8H37c-.3 0-.59.14-.78.38l-3.15 3.93L25.83 1.45c-.18-.27-.48-.44-.8-.45-.34-.02-.64.14-.83.4L19 8.33 16.8 5.4c-.19-.26-.48-.41-.81-.4-.32 0-.62.16-.8.42L6.92 17h2.45L16.02 7.69z"/></svg>