<svg xmlns="http://www.w3.org/2000/svg"  viewBox="0 0 50 50" width="50px" height="50px"><path d="M 24.59375 0 L 24.28125 3 L 22 3 C 21.96875 3 21.9375 3 21.90625 3 C 21.390625 3.046875 20.996094 3.480469 21 4 L 21 6 C 20.96875 6 20.9375 6 20.90625 6 C 20.390625 6.046875 19.996094 6.480469 20 7 L 20 10 C 20 10.550781 20.449219 11 21 11 L 21.59375 11 C 20.9375 17.148438 19.976563 21.558594 18.9375 25 L 17.6875 25 C 17.625 24.996094 17.5625 24.996094 17.5 25 C 17.21875 25.054688 16.972656 25.222656 16.824219 25.46875 C 16.675781 25.710938 16.636719 26.007813 16.71875 26.28125 L 17.53125 28.96875 C 16.496094 31.644531 15.453125 33.636719 14.65625 35.625 C 14.644531 35.65625 14.632813 35.6875 14.625 35.71875 L 7.125 48.5 C 6.945313 48.8125 6.945313 49.195313 7.128906 49.503906 C 7.308594 49.8125 7.640625 50.003906 8 50 L 16 50 C 16.527344 50 16.96875 49.589844 17 49.0625 C 17 49.0625 17.113281 47 18.1875 44.96875 C 19.261719 42.9375 21.101563 41 25 41 C 28.898438 41 30.738281 42.9375 31.8125 44.96875 C 32.886719 47 33 49.0625 33 49.0625 C 33.03125 49.589844 33.472656 50 34 50 L 42 50 C 42.359375 50.003906 42.691406 49.8125 42.871094 49.503906 C 43.054688 49.195313 43.054688 48.8125 42.875 48.5 L 35.40625 35.78125 C 35.40625 35.769531 35.40625 35.761719 35.40625 35.75 L 35.375 35.6875 C 35.367188 35.667969 35.355469 35.644531 35.34375 35.625 C 34.546875 33.636719 33.503906 31.644531 32.46875 28.96875 L 33.28125 26.28125 C 33.363281 25.976563 33.304688 25.652344 33.113281 25.402344 C 32.921875 25.152344 32.628906 25.003906 32.3125 25 L 31.15625 25 C 30.121094 21.5625 29.183594 17.148438 28.53125 11 L 29 11 C 29.550781 11 30 10.550781 30 10 L 30 7 C 30 6.449219 29.550781 6 29 6 L 29 4 C 29 3.449219 28.550781 3 28 3 L 25.71875 3 L 25.40625 0 Z M 23 5 L 27 5 L 27 6 L 23 6 Z M 22 8 L 28 8 L 28 9 L 22 9 Z M 23.5625 11 L 26.53125 11 C 27.160156 16.972656 28.054688 21.472656 29.0625 25 L 21.03125 25 C 22.039063 21.472656 22.933594 16.972656 23.5625 11 Z M 19.03125 27 L 30.96875 27 L 30.65625 28 L 26.78125 28 C 26.648438 27.972656 26.507813 27.972656 26.375 28 L 19.34375 28 Z M 19.25 30 L 22 30 L 20.375 35 L 17.125 35 C 17.765625 33.539063 18.464844 31.992188 19.25 30 Z M 24.125 30 L 25.875 30 L 27.5 35 L 22.5 35 Z M 28 30 L 30.75 30 C 31.535156 31.992188 32.234375 33.539063 32.875 35 L 29.625 35 Z M 16.1875 37 L 33.8125 37 L 40.25 48 L 34.875 48 C 34.753906 47.121094 34.464844 45.746094 33.5625 44.03125 C 32.261719 41.5625 29.601563 39 25 39 C 20.398438 39 17.738281 41.5625 16.4375 44.03125 C 15.535156 45.746094 15.246094 47.121094 15.125 48 L 9.75 48 Z"/></svg>