<svg xmlns="http://www.w3.org/2000/svg"  viewBox="0 0 50 50" width="50px" height="50px"><path d="M 44.367188 1.2265625 C 38.63542 5.9161904 30.506543 9.1768984 22.908203 10.960938 C 17.153744 12.312044 11.675181 12.783698 7.875 12.515625 L 7.8632812 12.496094 L 7.8398438 12.509766 C 6.6399214 12.423125 5.5881397 12.271278 4.7753906 12.039062 L 4.2246094 13.960938 C 4.9085735 14.156356 5.7910387 14.242 6.6308594 14.351562 L 13.136719 25.503906 A 1.0001 1.0001 0 0 0 14.923828 25.384766 L 19.378906 14.695312 L 29.328125 23.740234 A 1.0001 1.0001 0 0 0 30.988281 23.152344 L 32.755859 11.666016 L 42.462891 17.84375 A 1.0001 1.0001 0 0 0 44 17 L 44 4 L 43.861328 4 C 44.440521 3.5807362 45.087866 3.2193031 45.632812 2.7734375 L 44.367188 1.2265625 z M 12.980469 4.9902344 A 1.0001 1.0001 0 0 0 12.292969 5.2929688 L 9.2929688 8.2929688 A 1.0001 1.0001 0 1 0 10.707031 9.7070312 L 13.707031 6.7070312 A 1.0001 1.0001 0 0 0 12.980469 4.9902344 z M 42 5.2890625 L 42 15.177734 L 33.380859 9.6933594 C 36.425618 8.4684795 39.323679 7.0048303 42 5.2890625 z M 18.955078 5.9882812 A 1.0001 1.0001 0 0 0 18.105469 6.5527344 L 17.105469 8.5527344 A 1.0001161 1.0001161 0 1 0 18.894531 9.4472656 L 19.894531 7.4472656 A 1.0001 1.0001 0 0 0 18.955078 5.9882812 z M 30.888672 10.640625 L 29.294922 21.007812 L 20.810547 13.294922 C 21.701283 13.120147 22.453638 13.12224 23.365234 12.908203 C 25.853495 12.323976 28.380563 11.531027 30.888672 10.640625 z M 17.589844 13.783203 L 13.849609 22.757812 L 9.0644531 14.556641 C 11.512144 14.639281 14.515007 14.232118 17.589844 13.783203 z M 35.117188 17.046875 A 1.0001 1.0001 0 0 0 34.789062 19 L 37.689453 19.951172 A 1.0005836 1.0005836 0 1 0 38.310547 18.048828 L 35.412109 17.099609 A 1.0001 1.0001 0 0 0 35.117188 17.046875 z M 4.6503906 21.240234 L 3.3496094 22.759766 C 3.7937608 23.140467 4.5035908 23.558268 5 23.953125 L 4.0019531 37.929688 A 1.0001 1.0001 0 0 0 5.5546875 38.832031 L 16.183594 31.746094 L 20.044922 44.294922 A 1.0001 1.0001 0 0 0 21.744141 44.669922 L 30.433594 35.013672 L 37.136719 46.503906 A 1.0001 1.0001 0 0 0 38.908203 46.419922 L 44.580078 34.130859 C 45.117709 34.063189 45.600793 34.070429 46.148438 33.988281 L 45.851562 32.011719 C 24.658959 35.190609 11.510896 27.120667 4.6503906 21.240234 z M 21.984375 21.986328 A 1.0001 1.0001 0 0 0 21 23 L 21 26 A 1.0001 1.0001 0 1 0 23 26 L 23 23 A 1.0001 1.0001 0 0 0 21.984375 21.986328 z M 33.988281 24.988281 A 1.0001 1.0001 0 0 0 33.167969 26.554688 L 35.167969 29.554688 A 1.0001 1.0001 0 1 0 36.832031 28.445312 L 34.832031 25.445312 A 1.0001 1.0001 0 0 0 33.988281 24.988281 z M 6.9082031 25.332031 C 9.2238872 27.00525 11.718998 28.662411 14.974609 30.148438 L 6.1425781 36.035156 L 6.9082031 25.332031 z M 18.1875 31.462891 C 21.276306 32.616411 24.76234 33.49899 28.599609 34.060547 L 21.435547 42.019531 L 18.1875 31.462891 z M 30.373047 34.335938 C 30.387237 34.337538 30.399853 34.340197 30.414062 34.341797 L 30.392578 34.353516 L 30.373047 34.335938 z M 42.279297 34.339844 L 37.896484 43.837891 L 32.455078 34.511719 C 35.500014 34.734845 38.800534 34.653991 42.279297 34.339844 z M 12.958984 37.986328 A 1.0001 1.0001 0 0 0 12.050781 39.316406 L 13.050781 42.316406 A 1.0005646 1.0005646 0 1 0 14.949219 41.683594 L 13.949219 38.683594 A 1.0001 1.0001 0 0 0 12.958984 37.986328 z"/></svg>