<svg xmlns="http://www.w3.org/2000/svg"  viewBox="0 0 50 50" width="50px" height="50px"><path d="M 38 2 C 34.710938 2 32 4.636719 32 7.890625 C 32 9.066406 32.332031 10.199219 32.652344 11.152344 C 32.972656 12.105469 33.285156 12.988281 33.300781 13.109375 C 33.300781 13.125 33.546875 15.292969 32.941406 17.160156 C 32.941406 17.164063 32.941406 17.164063 32.941406 17.167969 C 32.828125 17.484375 31.644531 20.839844 30.957031 22.746094 C 30.652344 22.113281 30.097656 20.898438 29.527344 19.617188 C 29.207031 18.898438 28.902344 18.207031 28.671875 17.679688 C 28.441406 17.164063 28.335938 16.90625 28.246094 16.71875 C 27.515625 15.109375 27.484375 13.113281 27.484375 13.113281 L 27.484375 13.085938 C 27.480469 12.921875 27.644531 12.109375 27.820313 11.210938 C 27.996094 10.3125 28.171875 9.257813 28.042969 8.179688 C 27.675781 5.214844 24.984375 3.070313 22.042969 3.429688 C 19.097656 3.792969 17.007813 6.523438 17.371094 9.488281 C 17.503906 10.5625 17.917969 11.550781 18.304688 12.378906 C 18.6875 13.207031 19.054688 13.972656 19.078125 14.066406 C 19.082031 14.082031 19.53125 16.007813 19.214844 17.738281 C 19.214844 17.738281 19.214844 17.742188 19.214844 17.742188 C 19.179688 17.910156 18.636719 20.378906 18.191406 22.402344 C 16.582031 20.234375 14.4375 17.339844 14.339844 17.203125 C 13.328125 15.738281 12.953125 13.773438 12.953125 13.773438 C 12.9375 13.675781 12.960938 12.832031 12.972656 11.917969 C 12.988281 11 12.96875 9.921875 12.644531 8.882813 C 11.980469 6.726563 10.097656 5.265625 7.984375 5.03125 C 7.28125 4.957031 6.554688 5.015625 5.835938 5.234375 C 2.972656 6.101563 1.359375 9.167969 2.242188 12.039063 C 2.566406 13.082031 3.167969 13.980469 3.703125 14.730469 C 4.234375 15.480469 4.71875 16.164063 4.78125 16.316406 L 4.789063 16.328125 L 4.796875 16.34375 C 4.796875 16.34375 5.589844 18.1875 5.578125 19.957031 L 5.582031 19.933594 C 5.570313 20.269531 5.433594 25.21875 5.367188 26.421875 L 5.363281 26.425781 C 5.179688 30.230469 5.960938 34.007813 7.507813 37.453125 C 8.988281 40.773438 9.878906 43.761719 10.046875 44.296875 L 10.078125 44.390625 C 10.429688 45.210938 11.308594 45.777344 12.515625 45.917969 C 13.5625 46.035156 14.910156 45.832031 16.625 45.203125 C 18.785156 46.957031 21.542969 48.015625 24.582031 48.015625 C 26.84375 48.015625 28.992188 47.4375 30.875 46.421875 C 31.019531 46.558594 31.171875 46.683594 31.328125 46.78125 C 31.808594 47.082031 32.375 47.289063 33.035156 47.464844 C 34.363281 47.8125 36.074219 48 37.992188 48 C 39.917969 48 41.636719 47.785156 42.957031 47.425781 C 43.617188 47.246094 44.175781 47.03125 44.644531 46.746094 C 45.117188 46.457031 45.609375 46.050781 45.6875 45.324219 L 45.691406 45.269531 L 45.691406 45.21875 C 45.691406 45.257813 45.726563 44.789063 45.789063 44.222656 C 45.851563 43.660156 45.941406 42.910156 46.046875 42.046875 C 46.261719 40.332031 46.535156 38.175781 46.785156 36.160156 L 46.785156 36.15625 C 47.304688 32.070313 46.890625 27.875 45.429688 23.96875 L 45.425781 23.964844 L 45.425781 23.960938 C 44.957031 22.722656 43.175781 17.632813 43.046875 17.261719 C 42.4375 15.386719 42.6875 13.195313 42.6875 13.195313 L 42.6875 13.167969 C 42.707031 12.96875 43.003906 12.101563 43.328125 11.148438 C 43.65625 10.195313 44 9.070313 44 7.890625 C 44 4.636719 41.289063 2 38 2 Z M 38 4 C 40.234375 4 42 5.742188 42 7.890625 C 42 8.660156 41.742188 9.613281 41.4375 10.503906 C 41.136719 11.390625 40.78125 12.132813 40.699219 12.964844 C 40.699219 12.976563 40.65625 13.414063 40.640625 14 L 35.347656 14 C 35.335938 13.335938 35.28125 12.847656 35.28125 12.847656 L 35.28125 12.84375 C 35.179688 12.082031 34.84375 11.394531 34.546875 10.515625 C 34.253906 9.636719 34 8.667969 34 7.890625 C 34 5.742188 35.765625 4 38 4 Z M 22.96875 5.402344 C 24.535156 5.53125 25.851563 6.753906 26.054688 8.421875 C 26.140625 9.109375 26.023438 9.992188 25.859375 10.824219 C 25.691406 11.65625 25.464844 12.367188 25.488281 13.140625 C 25.488281 13.140625 25.488281 13.144531 25.488281 13.144531 C 25.488281 13.164063 25.5 13.558594 25.546875 14.082031 L 21.203125 14.613281 C 21.117188 14.011719 21.015625 13.578125 21.015625 13.578125 L 21.015625 13.570313 C 20.835938 12.878906 20.46875 12.296875 20.117188 11.539063 C 19.765625 10.78125 19.441406 9.9375 19.355469 9.246094 L 19.355469 9.242188 C 19.121094 7.335938 20.433594 5.644531 22.285156 5.414063 C 22.515625 5.386719 22.746094 5.382813 22.96875 5.402344 Z M 7.101563 7.011719 C 8.703125 6.863281 10.238281 7.855469 10.734375 9.46875 C 10.941406 10.140625 10.988281 11.042969 10.972656 11.886719 C 10.960938 12.726563 10.859375 13.40625 10.980469 14.117188 L 10.980469 14.125 C 10.980469 14.125 11.070313 14.5625 11.238281 15.152344 L 6.964844 16.449219 C 6.792969 15.941406 6.640625 15.566406 6.632813 15.550781 L 6.628906 15.546875 C 6.328125 14.828125 5.824219 14.265625 5.328125 13.570313 C 4.832031 12.871094 4.363281 12.113281 4.15625 11.449219 C 3.585938 9.605469 4.59375 7.699219 6.417969 7.148438 C 6.644531 7.078125 6.875 7.03125 7.101563 7.011719 Z M 35.246094 16 L 40.730469 16 C 40.808594 16.597656 40.933594 17.238281 41.140625 17.875 L 41.144531 17.890625 L 41.152344 17.902344 C 41.152344 17.90625 41.183594 17.996094 41.1875 18 L 34.765625 18 C 34.773438 17.988281 34.832031 17.816406 34.832031 17.8125 L 34.839844 17.796875 L 34.84375 17.78125 C 35.039063 17.179688 35.164063 16.574219 35.246094 16 Z M 25.898438 16.054688 C 26.027344 16.539063 26.195313 17.046875 26.421875 17.546875 L 26.425781 17.558594 L 26.433594 17.566406 C 26.417969 17.539063 26.554688 17.839844 26.617188 17.980469 L 21.0625 18.660156 C 21.078125 18.582031 21.171875 18.152344 21.175781 18.128906 L 21.179688 18.113281 L 21.183594 18.101563 C 21.277344 17.59375 21.3125 17.09375 21.328125 16.613281 Z M 11.945313 17.03125 C 12.152344 17.464844 12.398438 17.914063 12.695313 18.34375 L 12.703125 18.355469 L 12.714844 18.363281 C 12.726563 18.382813 13 18.753906 13.042969 18.808594 L 7.5625 20.46875 C 7.566406 20.40625 7.578125 20.011719 7.578125 20 L 7.578125 19.96875 C 7.582031 19.417969 7.53125 18.886719 7.453125 18.390625 Z M 27.460938 19.890625 C 27.546875 20.085938 27.609375 20.230469 27.699219 20.429688 C 28.046875 21.210938 28.285156 21.710938 28.59375 22.386719 C 27.578125 22.128906 26.519531 21.984375 25.421875 21.984375 C 23.527344 21.984375 21.726563 22.394531 20.082031 23.117188 C 20.300781 22.125 20.398438 21.691406 20.605469 20.734375 Z M 34.054688 20 L 41.894531 20 C 42.488281 21.691406 43.195313 23.722656 43.558594 24.671875 C 44.898438 28.257813 45.28125 32.125 44.800781 35.90625 L 44.800781 35.910156 C 44.550781 37.921875 44.277344 40.078125 44.0625 41.804688 C 43.957031 42.667969 43.867188 43.421875 43.800781 44 C 43.75 44.453125 43.730469 44.691406 43.71875 44.953125 C 43.707031 44.960938 43.691406 44.988281 43.601563 45.042969 C 43.382813 45.175781 42.96875 45.347656 42.429688 45.496094 C 41.347656 45.792969 39.765625 46 37.992188 46 C 36.210938 46 34.621094 45.8125 33.546875 45.53125 C 33.199219 45.4375 32.933594 45.335938 32.714844 45.238281 L 32.238281 44.625 C 32.222656 44.429688 32.214844 44.296875 32.183594 44 C 32.117188 43.421875 32.027344 42.667969 31.921875 41.804688 C 31.707031 40.078125 31.433594 37.921875 31.183594 35.910156 L 31.183594 35.90625 C 30.703125 32.136719 31.183594 28.261719 32.4375 24.546875 C 32.800781 23.589844 33.464844 21.679688 34.054688 20 Z M 14.308594 20.515625 C 15.441406 22.050781 16.429688 23.394531 17.402344 24.691406 C 14.25 27.0625 12.136719 30.773438 11.992188 34.964844 C 11.875 38.289063 13.035156 41.320313 15.015625 43.628906 C 13.988281 43.917969 13.226563 43.984375 12.738281 43.929688 C 12.027344 43.847656 11.910156 43.582031 11.921875 43.609375 C 11.761719 43.089844 10.851563 40.046875 9.332031 36.636719 L 9.332031 36.632813 C 7.90625 33.460938 7.195313 29.996094 7.359375 26.53125 L 7.359375 26.527344 C 7.40625 25.707031 7.445313 24.1875 7.492188 22.578125 Z M 25.421875 24.015625 C 27.144531 24.015625 28.753906 24.414063 30.171875 25.113281 C 29.113281 28.71875 28.730469 32.46875 29.199219 36.160156 C 29.449219 38.175781 29.726563 40.332031 29.9375 42.046875 C 30.042969 42.910156 30.132813 43.660156 30.199219 44.222656 C 30.210938 44.359375 30.210938 44.34375 30.21875 44.457031 C 28.546875 45.425781 26.625 45.984375 24.582031 45.984375 C 18.492188 45.984375 13.808594 41.128906 14.023438 35.035156 C 14.234375 28.941406 19.332031 24.015625 25.421875 24.015625 Z M 26 26 C 24.894531 26 24 26.894531 24 28 C 24 29.105469 24.894531 30 26 30 C 27.105469 30 28 29.105469 28 28 C 28 26.894531 27.105469 26 26 26 Z M 20 28 C 18.894531 28 18 28.894531 18 30 C 18 31.105469 18.894531 32 20 32 C 21.105469 32 22 31.105469 22 30 C 22 28.894531 21.105469 28 20 28 Z M 25 32 C 23.894531 32 23 32.894531 23 34 C 23 35.105469 23.894531 36 25 36 C 26.105469 36 27 35.105469 27 34 C 27 32.894531 26.105469 32 25 32 Z M 43.703125 45.089844 C 43.703125 45.125 43.691406 45.183594 43.691406 45.21875 L 43.699219 45.113281 C 43.699219 45.097656 43.703125 45.105469 43.703125 45.089844 Z"/></svg>