<svg xmlns="http://www.w3.org/2000/svg"  viewBox="0 0 50 50" width="50px" height="50px"><path d="M 22 3 C 21.7235 3 21.449846 3.0182441 21.179688 3.0527344 C 21.039606 3.0706504 20.903502 3.1041974 20.765625 3.1308594 C 20.63116 3.1568115 20.49581 3.1769681 20.363281 3.2109375 C 20.272675 3.2341962 20.185225 3.268069 20.095703 3.2949219 C 19.916228 3.3486599 19.735949 3.4010559 19.560547 3.46875 C 19.522166 3.4835842 19.485417 3.5021086 19.447266 3.5175781 C 19.230056 3.6055094 19.014902 3.7006486 18.804688 3.8085938 C 18.766657 3.82815 18.731122 3.8528816 18.693359 3.8730469 C 18.490438 3.9812753 18.289374 4.0913344 18.09375 4.2167969 C 17.998133 4.2781057 17.90803 4.3490581 17.814453 4.4140625 C 17.680658 4.5070527 17.543933 4.5967888 17.414062 4.6972656 C 17.310744 4.7770953 17.213734 4.8652217 17.113281 4.9492188 C 16.99537 5.0480012 16.875927 5.1434842 16.761719 5.2480469 C 16.586176 5.4083026 16.417295 5.5766177 16.251953 5.7480469 C 16.226984 5.7740406 16.200535 5.7979605 16.175781 5.8242188 C 16.16185 5.838933 16.146667 5.8524012 16.132812 5.8671875 C 14.578595 7.525986 13.463597 9.6603637 13.021484 11.796875 A 1.0001 1.0001 0 0 0 13.011719 11.851562 C 13.011305 11.85355 13.010178 11.855434 13.009766 11.857422 A 1.0001 1.0001 0 0 0 13.009766 11.859375 L 12.779297 13.478516 L 7.0839844 13.003906 A 1.0001 1.0001 0 0 0 6.9824219 13 A 1.0001 1.0001 0 0 0 6.0058594 13.886719 L 2.0058594 48.886719 A 1.0001 1.0001 0 0 0 3 50 L 36 50 A 1.0001 1.0001 0 0 0 36.033203 49.998047 A 1.0001 1.0001 0 0 0 36.058594 49.996094 A 1.0001 1.0001 0 0 0 36.140625 49.988281 A 1.0001 1.0001 0 0 0 36.142578 49.988281 A 1.0001 1.0001 0 0 0 36.242188 49.96875 A 1.0001 1.0001 0 0 0 36.287109 49.957031 L 36.294922 49.955078 A 1.0001 1.0001 0 0 0 36.302734 49.953125 L 46.234375 46.972656 A 1.0001 1.0001 0 0 0 46.287109 46.957031 A 1.0001 1.0001 0 0 0 46.330078 46.943359 A 1.0001 1.0001 0 0 0 46.333984 46.941406 A 1.0001 1.0001 0 0 0 46.931641 45.599609 A 1.0001 1.0001 0 0 0 46.929688 45.597656 L 38.970703 13.757812 A 1.0001 1.0001 0 0 0 37.445312 13.167969 L 34.927734 14.845703 L 33.607422 14.185547 L 33.480469 13.300781 A 12.551 12.551 0 0 0 31.310547 8.5097656 A 11.072 11.072 0 0 0 28.589844 5.8398438 A 11.622 11.622 0 0 1 29.419922 9.3203125 C 29.509922 9.4403125 29.609219 9.5594531 29.699219 9.6894531 A 10.572 10.572 0 0 1 31.347656 13.0625 A 1.0001 1.0001 0 0 0 31.324219 13.054688 A 1.0001 1.0001 0 0 0 30.964844 12.994141 A 1.0001 1.0001 0 0 0 30.800781 13.013672 L 27.724609 13.269531 L 27.992188 11.125 A 1.0001 1.0001 0 0 0 27.992188 11.123047 A 0.861 0.861 0 0 0 27.992188 11.117188 A 1.0001 1.0001 0 0 0 27.996094 11.085938 A 0.861 0.861 0 0 0 27.998047 11.060547 A 1.0001 1.0001 0 0 0 28 11 C 28 10.597968 27.982634 10.215521 27.957031 9.84375 C 27.949682 9.7382231 27.940972 9.6374912 27.931641 9.5351562 C 27.907252 9.2649565 27.874375 9.0036387 27.835938 8.75 C 27.822914 8.6645624 27.811366 8.5770889 27.796875 8.4941406 C 27.686713 7.8608992 27.532715 7.2788781 27.332031 6.7519531 C 27.303119 6.6759542 27.270655 6.6081587 27.240234 6.5351562 C 27.167239 6.3600532 27.091279 6.1882404 27.007812 6.0253906 C 26.967061 5.9458467 26.923452 5.8723645 26.880859 5.796875 C 26.80553 5.6632717 26.727397 5.5330075 26.644531 5.4082031 C 26.59257 5.3301421 26.540235 5.2548177 26.486328 5.1816406 C 26.443713 5.1235111 26.40572 5.0599648 26.361328 5.0039062 C 26.314134 4.944309 26.260083 4.8947141 26.210938 4.8378906 C 26.162579 4.7821211 26.115845 4.7263356 26.066406 4.6738281 C 25.970172 4.5716363 25.870105 4.4752594 25.767578 4.3828125 C 25.705916 4.3270574 25.644766 4.272157 25.582031 4.2207031 C 25.489815 4.1453091 25.395205 4.0740095 25.298828 4.0058594 C 25.224878 3.9534122 25.150899 3.9027323 25.076172 3.8554688 C 24.988237 3.799965 24.899337 3.7471869 24.808594 3.6972656 C 24.71536 3.6459485 24.622673 3.5989514 24.529297 3.5546875 C 24.453582 3.5187329 24.378046 3.4835166 24.300781 3.4511719 C 24.186474 3.4034499 24.073819 3.36271 23.960938 3.3242188 C 23.895808 3.3018947 23.8316 3.277743 23.765625 3.2578125 C 23.705171 3.2396293 23.649466 3.2287187 23.589844 3.2128906 C 23.357652 3.1507152 23.12068 3.1020531 22.880859 3.0683594 C 22.8238 3.0603895 22.768095 3.0491571 22.712891 3.0429688 C 22.476861 3.0164237 22.239881 3 22 3 z M 22 5 C 22.326692 5 22.632958 5.0326604 22.919922 5.09375 C 23.101748 5.1308325 23.272147 5.185349 23.4375 5.2480469 C 23.524327 5.2810359 23.608967 5.3157961 23.691406 5.3554688 C 23.858175 5.4367425 24.019427 5.5297012 24.169922 5.6425781 C 24.208622 5.670688 24.245725 5.7005093 24.283203 5.7304688 C 24.463316 5.8792646 24.634246 6.0456587 24.792969 6.2460938 C 24.888248 6.3664127 24.979099 6.5017893 25.066406 6.6464844 C 25.154308 6.7895257 25.233188 6.9457105 25.308594 7.1074219 C 25.410981 7.3298244 25.501185 7.5776249 25.583984 7.8457031 C 25.607891 7.9232025 25.634482 7.9974583 25.65625 8.078125 C 25.76069 8.4630162 25.844367 8.8908314 25.902344 9.3671875 C 25.902344 9.3671875 25.902344 9.3691406 25.902344 9.3691406 C 25.961065 9.8522561 25.994665 10.383669 25.996094 10.966797 L 25.6875 13.439453 L 20.679688 13.855469 L 20.5 12.439453 A 10.42 10.42 0 0 1 20.910156 9.3300781 A 4.592 4.592 0 0 1 21.910156 7.5097656 A 3.084 3.084 0 0 1 23.099609 6.7304688 A 2.13 2.13 0 0 0 22 6.5 A 4.118 4.118 0 0 0 19.509766 7.4902344 A 7.309 7.309 0 0 0 19 8.7304688 A 12.9 12.9 0 0 0 18.5 12.5 A 0.487 0.487 0 0 0 18.509766 12.619141 L 18.675781 13.96875 L 14.775391 13.644531 L 14.982422 12.191406 C 14.985528 12.176504 14.990944 12.161406 14.994141 12.146484 C 15.073764 11.774178 15.183504 11.400002 15.3125 11.027344 C 15.666913 10.016302 16.201639 9.0121394 16.861328 8.1230469 C 17.005349 7.9288657 17.154846 7.7404615 17.310547 7.5585938 C 17.404146 7.4493268 17.496364 7.3383138 17.59375 7.234375 C 18.717548 6.0349588 20.049386 5.2274035 21.404297 5.0410156 C 21.601203 5.0147868 21.800337 5 22 5 z M 30.142578 15.074219 L 34.847656 48 L 4.1210938 48 L 7.8828125 15.076172 L 12.496094 15.460938 L 12.009766 18.857422 L 12.009766 18.859375 A 1 1 0 0 0 12.005859 18.904297 A 1.0001694 1.0001694 0 0 0 12 18.970703 A 1 1 0 0 1 12 18.972656 A 1.0001694 1.0001694 0 0 0 12.001953 19.058594 A 1 1 0 0 0 12.009766 19.140625 A 1.0001694 1.0001694 0 0 0 12.011719 19.162109 A 1 1 0 0 0 12.013672 19.171875 A 1.0001694 1.0001694 0 0 0 12.033203 19.255859 A 1 1 0 0 0 12.066406 19.363281 A 1.0001694 1.0001694 0 0 0 12.103516 19.443359 A 1 1 0 0 0 12.150391 19.529297 A 1.0001694 1.0001694 0 0 0 12.152344 19.53125 A 1 1 0 0 0 12.185547 19.578125 A 1.0001694 1.0001694 0 0 0 12.212891 19.619141 A 1 1 0 0 0 12.240234 19.648438 A 1.0001694 1.0001694 0 0 0 12.28125 19.695312 A 1 1 0 0 1 12.283203 19.697266 A 1 1 0 0 0 12.292969 19.707031 A 1.0001694 1.0001694 0 0 0 12.353516 19.763672 A 1 1 0 0 1 12.355469 19.765625 A 1.0001694 1.0001694 0 0 0 12.425781 19.818359 A 1 1 0 0 0 12.498047 19.865234 A 1.0001694 1.0001694 0 0 0 12.509766 19.873047 A 1 1 0 0 1 12.511719 19.873047 A 1.0001694 1.0001694 0 0 0 12.599609 19.916016 A 1 1 0 0 0 12.681641 19.947266 A 1.0001694 1.0001694 0 0 0 12.697266 19.953125 A 1 1 0 0 0 12.732422 19.962891 A 1.0001694 1.0001694 0 0 0 12.800781 19.980469 A 1.0001694 1.0001694 0 0 0 12.888672 19.994141 A 1 1 0 0 0 13 20 A 1 1 0 0 0 13.087891 19.996094 A 1.0001694 1.0001694 0 0 0 13.099609 19.994141 A 1 1 0 0 0 13.158203 19.986328 A 1.0001694 1.0001694 0 0 0 13.228516 19.972656 A 1 1 0 0 0 13.234375 19.970703 A 1.0001694 1.0001694 0 0 0 13.324219 19.945312 A 1 1 0 0 0 13.335938 19.941406 A 1.0001694 1.0001694 0 0 0 13.417969 19.908203 A 1 1 0 0 0 13.46875 19.882812 A 1.0001694 1.0001694 0 0 0 13.476562 19.878906 A 1 1 0 0 0 13.554688 19.832031 A 1.0001694 1.0001694 0 0 0 13.560547 19.826172 A 1 1 0 0 0 13.609375 19.791016 A 1.0001694 1.0001694 0 0 0 13.738281 19.673828 A 1 1 0 0 0 13.753906 19.65625 A 1.0001694 1.0001694 0 0 0 13.800781 19.597656 A 1 1 0 0 0 13.802734 19.59375 A 1.0001694 1.0001694 0 0 0 13.904297 19.425781 A 1 1 0 0 0 13.927734 19.373047 A 1.0001694 1.0001694 0 0 0 13.933594 19.359375 A 1 1 0 0 0 13.951172 19.308594 A 1.0001694 1.0001694 0 0 0 13.990234 19.140625 L 14.492188 15.626953 L 18.916016 15.996094 A 1.0001 1.0001 0 0 0 19.083984 15.996094 L 25.433594 15.466797 L 25.007812 18.875 L 25.007812 18.876953 A 1.0001 1.0001 0 0 0 25.007812 18.880859 A 1 1 0 0 0 26.982422 19.189453 A 1.0001 1.0001 0 0 0 26.992188 19.125 L 26.992188 19.123047 L 27.470703 15.296875 L 30.142578 15.074219 z M 37.373047 15.619141 L 44.501953 44.132812 L 40.890625 42.328125 L 36.101562 16.466797 L 37.373047 15.619141 z M 32.259766 15.748047 L 34.109375 16.671875 L 38.943359 42.78125 L 36.619141 46.267578 L 32.259766 15.748047 z M 15.242188 25.083984 C 13.892577 25.083984 12.542411 25.602673 11.527344 26.638672 C 9.4950941 28.711847 9.4950941 32.057684 11.527344 34.130859 A 1.0001 1.0001 0 0 0 11.529297 34.132812 L 17.929688 40.625 A 1.0001 1.0001 0 0 0 19.355469 40.625 L 25.460938 34.417969 A 1.0001 1.0001 0 0 0 25.462891 34.417969 C 27.49514 32.344793 27.49514 28.997004 25.462891 26.923828 C 23.630108 25.053252 20.75186 24.963809 18.707031 26.470703 C 17.722008 25.578736 16.49447 25.083984 15.242188 25.083984 z M 15.242188 27.070312 C 16.06915 27.070312 16.895554 27.392292 17.527344 28.037109 A 1.0001 1.0001 0 0 0 17.53125 28.041016 L 17.925781 28.441406 A 1.0001 1.0001 0 0 0 19.353516 28.435547 L 19.464844 28.322266 C 20.728578 27.034661 22.770287 27.035214 24.033203 28.324219 C 25.318683 29.635586 25.318683 31.706211 24.033203 33.017578 L 18.640625 38.498047 L 12.957031 32.730469 L 12.955078 32.728516 C 11.671576 31.417043 11.672164 29.347804 12.957031 28.037109 C 13.588821 27.392292 14.415224 27.070313 15.242188 27.070312 z M 40.341797 44.289062 L 43.298828 45.767578 L 38.371094 47.246094 L 40.341797 44.289062 z"/></svg>