<svg xmlns="http://www.w3.org/2000/svg"  viewBox="0 0 50 50" width="50px" height="50px"><path d="M 24.982422 1 A 1.0001 1.0001 0 0 0 24.535156 1.1132812 L 3.5351562 12.113281 A 1.0001 1.0001 0 0 0 3 13 L 3 16 A 1.0001 1.0001 0 0 0 4 17 L 6 17 L 6 19 A 1.0001 1.0001 0 0 0 7 20 L 7 38 L 5 38 A 1.0001 1.0001 0 0 0 4 39 L 4 41 L 3 41 A 1.0001 1.0001 0 0 0 2 42 L 2 45 A 1.0001 1.0001 0 0 0 3 46 L 47 46 A 1.0001 1.0001 0 0 0 48 45 L 48 42 A 1.0001 1.0001 0 0 0 47 41 L 46 41 L 46 39 A 1.0001 1.0001 0 0 0 45 38 L 43 38 L 43 20 A 1.0001 1.0001 0 0 0 44 19 L 44 17 L 46 17 A 1.0001 1.0001 0 0 0 47 16 L 47 13 A 1.0001 1.0001 0 0 0 46.464844 12.113281 L 25.464844 1.1132812 A 1.0001 1.0001 0 0 0 24.982422 1 z M 25 3.1308594 L 45 13.605469 L 45 15 L 13 15 L 7 15 L 5 15 L 5 13.605469 L 25 3.1308594 z M 25 6 C 22.802706 6 21 7.8027056 21 10 C 21 12.197294 22.802706 14 25 14 C 27.197294 14 29 12.197294 29 10 C 29 7.8027056 27.197294 6 25 6 z M 25 8 C 26.116414 8 27 8.8835859 27 10 C 27 11.116414 26.116414 12 25 12 C 23.883586 12 23 11.116414 23 10 C 23 8.8835859 23.883586 8 25 8 z M 8 17 L 12 17 L 12 18 L 8 18 L 8 17 z M 14 17 L 16 17 L 16 19 A 1.0001 1.0001 0 0 0 17 20 L 17 38 L 13 38 L 13 20 A 1.0001 1.0001 0 0 0 14 19 L 14 17 z M 18 17 L 22 17 L 22 18 L 18 18 L 18 17 z M 24 17 L 26 17 L 26 19 A 1.0001 1.0001 0 0 0 27 20 L 27 38 L 23 38 L 23 20 A 1.0001 1.0001 0 0 0 24 19 L 24 17 z M 28 17 L 32 17 L 32 18 L 28 18 L 28 17 z M 34 17 L 36 17 L 36 19 A 1.0001 1.0001 0 0 0 37 20 L 37 38 L 33 38 L 33 20 A 1.0001 1.0001 0 0 0 34 19 L 34 17 z M 38 17 L 42 17 L 42 18 L 38 18 L 38 17 z M 9 20 L 11 20 L 11 38 L 9 38 L 9 20 z M 19 20 L 21 20 L 21 38 L 19 38 L 19 20 z M 29 20 L 31 20 L 31 38 L 29 38 L 29 20 z M 39 20 L 41 20 L 41 38 L 39 38 L 39 20 z M 6 40 L 44 40 L 44 42 A 1.0001 1.0001 0 0 0 45 43 L 46 43 L 46 44 L 4 44 L 4 43 L 5 43 A 1.0001 1.0001 0 0 0 6 42 L 6 40 z"/></svg>