<?xml version="1.0"?>
<svg xmlns="http://www.w3.org/2000/svg" viewBox="0 0 24 24" width="24px" height="24px">
  <path
    d="M 10 1 C 9.448 1 9 1.448 9 2 C 9 2.552 9.448 3 10 3 L 14 3 C 14.552 3 15 2.552 15 2 C 15 1.448 14.552 1 14 1 L 10 1 z M 18.994141 3.2050781 C 18.739141 3.2259531 18.491 3.3456406 18.3125 3.5566406 C 17.9555 3.9776406 18.008688 4.6087969 18.429688 4.9667969 L 19.853516 6.1738281 C 20.274516 6.5308281 20.905672 6.4776406 21.263672 6.0566406 C 21.620672 5.6356406 21.567484 5.0044844 21.146484 4.6464844 L 19.722656 3.4394531 C 19.512156 3.2609531 19.249141 3.1842031 18.994141 3.2050781 z M 12 4 C 7.038 4 3 8.038 3 13 C 3 17.962 7.038 22 12 22 C 16.962 22 21 17.962 21 13 C 21 8.038 16.962 4 12 4 z M 12 7 C 12.552 7 13 7.448 13 8 L 13 13 C 13 13.552 12.552 14 12 14 C 11.448 14 11 13.552 11 13 L 11 8 C 11 7.448 11.448 7 12 7 z" />
</svg>